%TF.GenerationSoftware,Novarm,DipTrace,3.0.0.2*%
%TF.CreationDate,2017-02-07T17:04:22+02:00*%
%FSLAX26Y26*%
%MOIN*%
%TF.FileFunction,Legend,Bot*%
%TF.Part,Single*%
%ADD16C,0.01*%
%ADD17C,0.073259*%
%ADD105C,0.015439*%
G75*
G01*
%LPD*%
X3132082Y1219150D2*
D16*
X3132309Y1225243D1*
X3132987Y1231307D1*
X3134114Y1237311D1*
X3135684Y1243226D1*
X3137690Y1249025D1*
X3140121Y1254678D1*
X3142966Y1260157D1*
X3146211Y1265437D1*
X3149840Y1270492D1*
X3153836Y1275296D1*
X3158179Y1279827D1*
X3162847Y1284062D1*
X3167819Y1287981D1*
X3173069Y1291564D1*
X3178573Y1294795D1*
X3184304Y1297658D1*
X3190233Y1300137D1*
X3196331Y1302223D1*
X3202570Y1303903D1*
X3208918Y1305171D1*
X3215345Y1306019D1*
X3221820Y1306444D1*
X3228310D1*
X3234784Y1306019D1*
X3241211Y1305171D1*
X3247559Y1303903D1*
X3253798Y1302223D1*
X3259897Y1300137D1*
X3265826Y1297658D1*
X3271556Y1294795D1*
X3277060Y1291564D1*
X3282310Y1287981D1*
X3287282Y1284062D1*
X3291951Y1279827D1*
X3296293Y1275296D1*
X3300289Y1270492D1*
X3303918Y1265437D1*
X3307163Y1260157D1*
X3310009Y1254678D1*
X3312440Y1249025D1*
X3314445Y1243226D1*
X3316015Y1237311D1*
X3317142Y1231307D1*
X3317821Y1225243D1*
X3318047Y1219150D1*
X3317821Y1213057D1*
X3317142Y1206994D1*
X3316015Y1200990D1*
X3314445Y1195074D1*
X3312440Y1189276D1*
X3310009Y1183623D1*
X3307163Y1178143D1*
X3303918Y1172863D1*
X3300289Y1167809D1*
X3296293Y1163005D1*
X3291951Y1158474D1*
X3287282Y1154239D1*
X3282310Y1150320D1*
X3277060Y1146736D1*
X3271556Y1143505D1*
X3265826Y1140643D1*
X3259897Y1138163D1*
X3253798Y1136078D1*
X3247559Y1134398D1*
X3241211Y1133130D1*
X3234784Y1132282D1*
X3228310Y1131856D1*
X3221820D1*
X3215345Y1132282D1*
X3208918Y1133130D1*
X3202570Y1134398D1*
X3196331Y1136078D1*
X3190233Y1138163D1*
X3184304Y1140643D1*
X3178573Y1143505D1*
X3173069Y1146736D1*
X3167819Y1150320D1*
X3162847Y1154239D1*
X3158179Y1158474D1*
X3153836Y1163005D1*
X3149840Y1167809D1*
X3146211Y1172863D1*
X3142966Y1178143D1*
X3140121Y1183623D1*
X3137690Y1189276D1*
X3135684Y1195074D1*
X3134114Y1200990D1*
X3132987Y1206994D1*
X3132309Y1213057D1*
X3132082Y1219150D1*
D17*
X677905Y740149D3*
X3325627Y1483171D2*
D105*
Y1411431D1*
X3320873Y1397061D1*
X3311257Y1387555D1*
X3296886Y1382691D1*
X3287380D1*
X3273010Y1387555D1*
X3263393Y1397061D1*
X3258640Y1411431D1*
Y1483171D1*
X3160775Y1468801D2*
X3170281Y1478418D1*
X3184651Y1483171D1*
X3203774D1*
X3218145Y1478418D1*
X3227761Y1468801D1*
Y1459295D1*
X3222898Y1449678D1*
X3218145Y1444924D1*
X3208638Y1440171D1*
X3179898Y1430554D1*
X3170281Y1425801D1*
X3165528Y1420937D1*
X3160775Y1411431D1*
Y1397061D1*
X3170281Y1387555D1*
X3184651Y1382691D1*
X3203774D1*
X3218145Y1387555D1*
X3227761Y1397061D1*
X3129896Y1483171D2*
Y1382691D1*
X3086786D1*
X3072416Y1387555D1*
X3067663Y1392308D1*
X3062910Y1401814D1*
Y1416184D1*
X3067663Y1425801D1*
X3072416Y1430554D1*
X3086786Y1435308D1*
X3072416Y1440171D1*
X3067663Y1444924D1*
X3062910Y1454431D1*
Y1464048D1*
X3067663Y1473554D1*
X3072416Y1478418D1*
X3086786Y1483171D1*
X3129896D1*
Y1435308D2*
X3086786D1*
X2934829D2*
X2891829D1*
X2877459Y1440171D1*
X2872596Y1444924D1*
X2867843Y1454431D1*
Y1464048D1*
X2872596Y1473554D1*
X2877459Y1478418D1*
X2891829Y1483171D1*
X2934829D1*
Y1382691D1*
X2901336Y1435308D2*
X2867843Y1382691D1*
X2769977Y1468801D2*
X2779484Y1478418D1*
X2793854Y1483171D1*
X2812977D1*
X2827347Y1478418D1*
X2836964Y1468801D1*
Y1459295D1*
X2832100Y1449678D1*
X2827347Y1444924D1*
X2817841Y1440171D1*
X2789101Y1430554D1*
X2779484Y1425801D1*
X2774731Y1420937D1*
X2769977Y1411431D1*
Y1397061D1*
X2779484Y1387555D1*
X2793854Y1382691D1*
X2812977D1*
X2827347Y1387555D1*
X2836964Y1397061D1*
X2739099Y1432876D2*
X2683829D1*
X2605087Y1382691D2*
Y1483060D1*
X2652951Y1416184D1*
X2581211D1*
X2526456Y1483060D2*
X2540716Y1478307D1*
X2545579Y1468801D1*
Y1459184D1*
X2540716Y1449678D1*
X2531209Y1444814D1*
X2512086Y1440061D1*
X2497716Y1435308D1*
X2488210Y1425691D1*
X2483456Y1416184D1*
Y1401814D1*
X2488210Y1392308D1*
X2492963Y1387444D1*
X2507333Y1382691D1*
X2526456D1*
X2540716Y1387444D1*
X2545579Y1392308D1*
X2550332Y1401814D1*
Y1416184D1*
X2545579Y1425691D1*
X2535962Y1435308D1*
X2521703Y1440061D1*
X2502580Y1444814D1*
X2492963Y1449678D1*
X2488210Y1459184D1*
Y1468801D1*
X2492963Y1478307D1*
X2507333Y1483060D1*
X2526456D1*
X2395208D2*
X2442961D1*
X2447714Y1440061D1*
X2442961Y1444814D1*
X2428591Y1449678D1*
X2414331D1*
X2399961Y1444814D1*
X2390344Y1435308D1*
X2385591Y1420937D1*
Y1411431D1*
X2390344Y1397061D1*
X2399961Y1387444D1*
X2414331Y1382691D1*
X2428591D1*
X2442961Y1387444D1*
X2447714Y1392308D1*
X2452578Y1401814D1*
X2180907Y1382691D2*
X2219264Y1483171D1*
X2257511Y1382691D1*
X2243141Y1416184D2*
X2195277D1*
X2092659Y1483171D2*
Y1382691D1*
Y1435308D2*
X2102165Y1444924D1*
X2111782Y1449678D1*
X2126152D1*
X2135659Y1444924D1*
X2145275Y1435308D1*
X2150029Y1420937D1*
Y1411431D1*
X2145275Y1397061D1*
X2135659Y1387555D1*
X2126152Y1382691D1*
X2111782D1*
X2102165Y1387555D1*
X2092659Y1397061D1*
X2004411Y1449678D2*
Y1382691D1*
Y1435308D2*
X2013917Y1444924D1*
X2023534Y1449678D1*
X2037793D1*
X2047410Y1444924D1*
X2056917Y1435308D1*
X2061780Y1420937D1*
Y1411431D1*
X2056917Y1397061D1*
X2047410Y1387555D1*
X2037793Y1382691D1*
X2023534D1*
X2013917Y1387555D1*
X2004411Y1397061D1*
X1973532Y1449678D2*
Y1349198D1*
Y1435308D2*
X1963915Y1444814D1*
X1954409Y1449678D1*
X1940039D1*
X1930422Y1444814D1*
X1920916Y1435308D1*
X1916052Y1420937D1*
Y1411321D1*
X1920916Y1397061D1*
X1930422Y1387444D1*
X1940039Y1382691D1*
X1954409D1*
X1963915Y1387444D1*
X1973532Y1397061D1*
X1870803Y1483171D2*
Y1401814D1*
X1866050Y1387555D1*
X1856433Y1382691D1*
X1846927D1*
X1885173Y1449678D2*
X1851680D1*
X1816048Y1420937D2*
X1758679D1*
Y1430554D1*
X1763432Y1440171D1*
X1768185Y1444924D1*
X1777802Y1449678D1*
X1792172D1*
X1801678Y1444924D1*
X1811295Y1435308D1*
X1816048Y1420937D1*
Y1411431D1*
X1811295Y1397061D1*
X1801678Y1387555D1*
X1792172Y1382691D1*
X1777802D1*
X1768185Y1387555D1*
X1758679Y1397061D1*
X1727800Y1449678D2*
Y1382691D1*
Y1420937D2*
X1722936Y1435308D1*
X1713430Y1444924D1*
X1703813Y1449678D1*
X1689443D1*
X3194153Y1243707D2*
X3203770Y1253324D1*
X3213386Y1258077D1*
X3227646D1*
X3237263Y1253324D1*
X3246769Y1243707D1*
X3251633Y1229337D1*
Y1219831D1*
X3246769Y1205461D1*
X3237263Y1195954D1*
X3227646Y1191090D1*
X3213386D1*
X3203770Y1195954D1*
X3194153Y1205461D1*
X3066072Y1291570D2*
X3027826Y1191090D1*
X2989579Y1291570D1*
X2906084Y1243707D2*
X2910837Y1253324D1*
X2925207Y1258077D1*
X2939577D1*
X2953948Y1253324D1*
X2958701Y1243707D1*
X2953948Y1234201D1*
X2944331Y1229337D1*
X2920454Y1224584D1*
X2910837Y1219831D1*
X2906084Y1210214D1*
Y1205461D1*
X2910837Y1195954D1*
X2925207Y1191090D1*
X2939577D1*
X2953948Y1195954D1*
X2958701Y1205461D1*
X2875206Y1229337D2*
X2817836D1*
Y1238954D1*
X2822589Y1248571D1*
X2827342Y1253324D1*
X2836959Y1258077D1*
X2851329D1*
X2860836Y1253324D1*
X2870452Y1243707D1*
X2875206Y1229337D1*
Y1219831D1*
X2870452Y1205461D1*
X2860836Y1195954D1*
X2851329Y1191090D1*
X2836959D1*
X2827342Y1195954D1*
X2817836Y1205461D1*
X2710464Y1191090D2*
Y1291570D1*
X2748711Y1191090D1*
X2786957Y1291570D1*
Y1191090D1*
X2655709Y1258077D2*
X2665216Y1253324D1*
X2674833Y1243707D1*
X2679586Y1229337D1*
Y1219831D1*
X2674833Y1205461D1*
X2665216Y1195954D1*
X2655709Y1191090D1*
X2641339D1*
X2631722Y1195954D1*
X2622216Y1205461D1*
X2617352Y1219831D1*
Y1229337D1*
X2622216Y1243707D1*
X2631722Y1253324D1*
X2641339Y1258077D1*
X2655709D1*
X2586474Y1229337D2*
X2529104D1*
Y1238954D1*
X2533857Y1248571D1*
X2538610Y1253324D1*
X2548227Y1258077D1*
X2562597D1*
X2572104Y1253324D1*
X2581721Y1243707D1*
X2586474Y1229337D1*
Y1219831D1*
X2581721Y1205461D1*
X2572104Y1195954D1*
X2562597Y1191090D1*
X2548227D1*
X2538610Y1195954D1*
X2529104Y1205461D1*
X3296566Y717087D2*
X3277443Y650101D1*
X3258320Y717087D1*
X3239197Y650101D1*
X3220073Y717087D1*
X3189195D2*
X3170072Y650101D1*
X3150948Y717087D1*
X3131825Y650101D1*
X3112702Y717087D1*
X3081823D2*
X3062700Y650101D1*
X3043577Y717087D1*
X3024454Y650101D1*
X3005330Y717087D1*
X2969699Y659718D2*
X2974452Y654854D1*
X2969699Y650101D1*
X2964835Y654854D1*
X2969699Y659718D1*
X2881340Y702717D2*
X2886093Y712334D1*
X2900463Y717087D1*
X2914833D1*
X2929203Y712334D1*
X2933956Y702717D1*
X2929203Y693211D1*
X2919586Y688347D1*
X2895710Y683594D1*
X2886093Y678841D1*
X2881340Y669224D1*
Y664471D1*
X2886093Y654964D1*
X2900463Y650101D1*
X2914833D1*
X2929203Y654964D1*
X2933956Y664471D1*
X2836091Y750581D2*
Y669224D1*
X2831338Y654964D1*
X2821721Y650101D1*
X2812215D1*
X2850461Y717087D2*
X2816968D1*
X2781336D2*
Y669224D1*
X2776583Y654964D1*
X2766966Y650101D1*
X2752596D1*
X2743090Y654964D1*
X2728720Y669224D1*
Y717087D2*
Y650101D1*
X2640471Y750581D2*
Y650101D1*
Y702717D2*
X2649978Y712334D1*
X2659595Y717087D1*
X2673965D1*
X2683471Y712334D1*
X2693088Y702717D1*
X2697841Y688347D1*
Y678841D1*
X2693088Y664471D1*
X2683471Y654964D1*
X2673965Y650101D1*
X2659595D1*
X2649978Y654964D1*
X2640471Y664471D1*
X2609593Y750581D2*
X2604840Y745828D1*
X2599976Y750581D1*
X2604840Y755445D1*
X2609593Y750581D1*
X2604840Y717087D2*
Y650101D1*
X2545221Y717087D2*
X2554727Y712334D1*
X2564344Y702717D1*
X2569098Y688347D1*
Y678841D1*
X2564344Y664471D1*
X2554727Y654964D1*
X2545221Y650101D1*
X2530851D1*
X2521234Y654964D1*
X2511728Y664471D1*
X2506864Y678841D1*
Y688347D1*
X2511728Y702717D1*
X2521234Y712334D1*
X2530851Y717087D1*
X2545221D1*
X2475986D2*
X2447245Y650101D1*
X2418616Y717087D1*
X2335121Y702717D2*
X2339874Y712334D1*
X2354244Y717087D1*
X2368614D1*
X2382984Y712334D1*
X2387737Y702717D1*
X2382984Y693211D1*
X2373367Y688347D1*
X2349491Y683594D1*
X2339874Y678841D1*
X2335121Y669224D1*
Y664471D1*
X2339874Y654964D1*
X2354244Y650101D1*
X2368614D1*
X2382984Y654964D1*
X2387737Y664471D1*
X2304242Y688347D2*
X2246872D1*
Y697964D1*
X2251626Y707581D1*
X2256379Y712334D1*
X2265996Y717087D1*
X2280366D1*
X2289872Y712334D1*
X2299489Y702717D1*
X2304242Y688347D1*
Y678841D1*
X2299489Y664471D1*
X2289872Y654964D1*
X2280366Y650101D1*
X2265996D1*
X2256379Y654964D1*
X2246872Y664471D1*
X2215994Y717087D2*
Y650101D1*
Y697964D2*
X2201624Y712334D1*
X2192007Y717087D1*
X2177747D1*
X2168130Y712334D1*
X2163377Y697964D1*
Y650101D1*
Y697964D2*
X2149007Y712334D1*
X2139390Y717087D1*
X2125131D1*
X2115514Y712334D1*
X2110650Y697964D1*
Y650101D1*
X2055895Y717087D2*
X2065402Y712334D1*
X2075019Y702717D1*
X2079772Y688347D1*
Y678841D1*
X2075019Y664471D1*
X2065402Y654964D1*
X2055895Y650101D1*
X2041525D1*
X2031908Y654964D1*
X2022402Y664471D1*
X2017538Y678841D1*
Y688347D1*
X2022402Y702717D1*
X2031908Y712334D1*
X2041525Y717087D1*
X2055895D1*
X1986660Y688347D2*
X1929290D1*
Y697964D1*
X1934043Y707581D1*
X1938796Y712334D1*
X1948413Y717087D1*
X1962783D1*
X1972290Y712334D1*
X1981907Y702717D1*
X1986660Y688347D1*
Y678841D1*
X1981907Y664471D1*
X1972290Y654964D1*
X1962783Y650101D1*
X1948413D1*
X1938796Y654964D1*
X1929290Y664471D1*
X1893658Y659718D2*
X1898411Y654854D1*
X1893658Y650101D1*
X1888795Y654854D1*
X1893658Y659718D1*
X1800436Y702717D2*
X1810053Y712334D1*
X1819670Y717087D1*
X1833929D1*
X1843546Y712334D1*
X1853052Y702717D1*
X1857916Y688347D1*
Y678841D1*
X1853052Y664471D1*
X1843546Y654964D1*
X1833929Y650101D1*
X1819670D1*
X1810053Y654964D1*
X1800436Y664471D1*
X1745681Y717087D2*
X1755187Y712334D1*
X1764804Y702717D1*
X1769557Y688347D1*
Y678841D1*
X1764804Y664471D1*
X1755187Y654964D1*
X1745681Y650101D1*
X1731311D1*
X1721694Y654964D1*
X1712187Y664471D1*
X1707324Y678841D1*
Y688347D1*
X1712187Y702717D1*
X1721694Y712334D1*
X1731311Y717087D1*
X1745681D1*
X1676445D2*
Y650101D1*
Y697964D2*
X1662075Y712334D1*
X1652458Y717087D1*
X1638199D1*
X1628582Y712334D1*
X1623829Y697964D1*
Y650101D1*
Y697964D2*
X1609459Y712334D1*
X1599842Y717087D1*
X1585582D1*
X1575965Y712334D1*
X1571102Y697964D1*
Y650101D1*
X2228766Y1246806D2*
Y1179820D1*
Y1227683D2*
X2214396Y1242053D1*
X2204779Y1246806D1*
X2190519D1*
X2180902Y1242053D1*
X2176149Y1227683D1*
Y1179820D1*
Y1227683D2*
X2161779Y1242053D1*
X2152162Y1246806D1*
X2137902D1*
X2128286Y1242053D1*
X2123422Y1227683D1*
Y1179820D1*
X2092543Y1246806D2*
Y1198943D1*
X2087790Y1184684D1*
X2078173Y1179820D1*
X2063803D1*
X2054297Y1184684D1*
X2039927Y1198943D1*
Y1246806D2*
Y1179820D1*
X2009048Y1280300D2*
Y1179820D1*
X1963800Y1280300D2*
Y1198943D1*
X1959047Y1184684D1*
X1949430Y1179820D1*
X1939923D1*
X1978170Y1246806D2*
X1944676D1*
X1909045Y1280300D2*
X1904292Y1275547D1*
X1899428Y1280300D1*
X1904292Y1285164D1*
X1909045Y1280300D1*
X1904292Y1246806D2*
Y1179820D1*
X1868549Y1280300D2*
Y1179820D1*
X1820686Y1246806D2*
X1868549Y1198943D1*
X1849426Y1218066D2*
X1815933Y1179820D1*
X1732438Y1256313D2*
X1746808D1*
X1756314Y1251560D1*
X1761178Y1246806D1*
X1765931Y1237190D1*
Y1218066D1*
X1761178Y1213313D1*
X1751561D1*
X1732438Y1218066D1*
X1727685Y1208560D1*
X1722931D1*
X1713314Y1218066D1*
X1708561Y1241943D1*
X1713314Y1256313D1*
X1718068Y1265930D1*
X1727685Y1275436D1*
X1737191Y1280189D1*
X1756314D1*
X1765931Y1275436D1*
X1775437Y1265930D1*
X1780301Y1256313D1*
X1785054Y1241943D1*
Y1218066D1*
X1780301Y1203696D1*
X1775437Y1194190D1*
X1765931Y1184573D1*
X1756314Y1179820D1*
X1737191D1*
X1727685Y1184573D1*
X1718068Y1194190D1*
X1732438Y1261066D2*
Y1218066D1*
X1677683Y1246806D2*
Y1179820D1*
Y1227683D2*
X1663313Y1242053D1*
X1653696Y1246806D1*
X1639436D1*
X1629819Y1242053D1*
X1625066Y1227683D1*
Y1179820D1*
Y1227683D2*
X1610696Y1242053D1*
X1601079Y1246806D1*
X1586820D1*
X1577203Y1242053D1*
X1572339Y1227683D1*
Y1179820D1*
X1541461Y1246806D2*
Y1198943D1*
X1536707Y1184684D1*
X1527090Y1179820D1*
X1512720D1*
X1503214Y1184684D1*
X1488844Y1198943D1*
Y1246806D2*
Y1179820D1*
X1457965Y1280300D2*
Y1179820D1*
X1412717Y1280300D2*
Y1198943D1*
X1407964Y1184684D1*
X1398347Y1179820D1*
X1388840D1*
X1427087Y1246806D2*
X1393594D1*
X1357962Y1280300D2*
X1353209Y1275547D1*
X1348345Y1280300D1*
X1353209Y1285164D1*
X1357962Y1280300D1*
X1353209Y1246806D2*
Y1179820D1*
X1317467Y1280300D2*
Y1179820D1*
X1269603Y1246806D2*
X1317467Y1198943D1*
X1298343Y1218066D2*
X1264850Y1179820D1*
X1229218Y1189437D2*
X1233971Y1184573D1*
X1229218Y1179820D1*
X1224355Y1184573D1*
X1229218Y1189437D1*
X1169600Y1246806D2*
X1179106Y1242053D1*
X1188723Y1232436D1*
X1193476Y1218066D1*
Y1208560D1*
X1188723Y1194190D1*
X1179106Y1184684D1*
X1169600Y1179820D1*
X1155230D1*
X1145613Y1184684D1*
X1136106Y1194190D1*
X1131243Y1208560D1*
Y1218066D1*
X1136106Y1232436D1*
X1145613Y1242053D1*
X1155230Y1246806D1*
X1169600D1*
X1100364D2*
Y1179820D1*
Y1218066D2*
X1095500Y1232436D1*
X1085994Y1242053D1*
X1076377Y1246806D1*
X1062007D1*
X973759Y1242053D2*
Y1165450D1*
X978512Y1151190D1*
X983265Y1146326D1*
X992882Y1141573D1*
X1007252D1*
X1016758Y1146326D1*
X973759Y1227683D2*
X983265Y1237190D1*
X992882Y1242053D1*
X1007252D1*
X1016758Y1237190D1*
X1026375Y1227683D1*
X1031129Y1213313D1*
Y1203696D1*
X1026375Y1189437D1*
X1016758Y1179820D1*
X1007252Y1175067D1*
X992882D1*
X983265Y1179820D1*
X973759Y1189437D1*
M02*
