%TF.GenerationSoftware,Novarm,DipTrace,3.0.0.2*%
%TF.CreationDate,2017-02-07T18:04:26+02:00*%
%FSLAX26Y26*%
%MOIN*%
%TF.FileFunction,Copper,L2,Bot*%
%TF.Part,Single*%
%AMOUTLINE0*
4,1,8,
-0.019685,-0.029528,
-0.009843,-0.03937,
0.009843,-0.03937,
0.019685,-0.029528,
0.019685,0.029528,
0.009843,0.03937,
-0.009843,0.03937,
-0.019685,0.029528,
-0.019685,-0.029528,
0*%
%TA.AperFunction,Conductor*%
%ADD13C,0.009*%
%TA.AperFunction,ComponentPad*%
%ADD23R,0.059055X0.059055*%
%ADD24C,0.059055*%
%ADD30R,0.06378X0.06378*%
%ADD31C,0.06378*%
%ADD32R,0.098425X0.098425*%
%ADD33C,0.098425*%
%ADD35R,0.07874X0.07874*%
%ADD36C,0.07874*%
%ADD41O,0.03937X0.07874*%
%TA.AperFunction,ViaPad*%
%ADD46C,0.04*%
%TA.AperFunction,ComponentPad*%
%ADD107OUTLINE0*%
G75*
G01*
%LPD*%
X2288043Y1275004D2*
D13*
Y919016D1*
Y618087D1*
X2304046Y602085D1*
X2585946D1*
X2656516Y531516D1*
X736409Y1194602D2*
Y722063D1*
X752409Y706063D1*
X1626429D1*
X1642429Y722063D1*
Y872020D1*
X948201Y1115602D2*
Y1223043D1*
X964201Y1239043D1*
X1948831D1*
X2006358Y1181516D1*
X2037858Y1150016D1*
Y480646D1*
X2053858Y464646D1*
X2978016D1*
X2994016Y480646D1*
Y556516D1*
X1605520Y1406949D2*
X1077882D1*
X1046382Y1438449D1*
X1943358Y1153713D2*
X1786938D1*
X1402287Y769063D1*
X989791D1*
X973791Y785063D1*
Y990736D1*
X1445571Y555823D2*
X1076606D1*
X719016D1*
X1938437Y1531516D2*
X2116051D1*
X2132051Y1515516D1*
Y1306504D1*
X2140134D1*
X2177646Y1344016D1*
X3100543Y893819D2*
X2971371Y764646D1*
X2944016D1*
Y556516D1*
X1090409Y894016D2*
X1026925Y957501D1*
Y1084102D1*
X877913D1*
Y1000520D1*
X846409Y969016D1*
X1026925Y1084102D2*
X1042925Y1100102D1*
Y1131102D1*
X1058925Y1147102D1*
X1118516D1*
X1134016Y1131602D1*
X1413409D1*
X2456535Y831516D2*
X2507406Y780646D1*
X2872622D1*
X2888622Y796646D1*
Y830819D1*
X2904622Y846819D1*
X2950543D1*
X846409Y1281516D2*
Y1119016D1*
X2888622Y796646D2*
X2912016D1*
X2944016Y764646D1*
X2177646Y1344016D2*
X2303543D1*
X2319543Y1328016D1*
Y847516D1*
X2335543Y831516D1*
X2456535D1*
X846409Y969016D2*
Y819016D1*
X1413409Y1131602D2*
X1467020D1*
Y998280D1*
X1481516Y983783D1*
X846409Y1119016D2*
Y1084102D1*
X877913D1*
X2619016Y1044016D2*
Y1644016D1*
X1770524Y956106D2*
Y794016D1*
X2619016Y1644016D2*
X2660043Y1685043D1*
X2940516D1*
X2956516Y1669043D1*
Y1504386D1*
X618925Y1119016D2*
Y943925D1*
X531516Y856516D1*
X666425D1*
Y706063D1*
X682425Y690063D1*
X1643343D1*
X1884760Y448646D1*
X1990358D1*
X2006358Y464646D1*
Y1075213D1*
X1974858Y1106713D1*
X1745524Y1531516D2*
X1933024Y1344016D1*
X2097787D1*
X1009472Y1207543D2*
Y1131602D1*
X1281516Y1188043D2*
X1169890D1*
X1150390Y1207543D1*
X1009472D1*
X1974858Y1106713D2*
Y1172043D1*
X1958858Y1188043D1*
X1281516D1*
X2006358Y464646D2*
X2022358Y448646D1*
X3028016D1*
X3044016Y464646D1*
Y556516D1*
X2097787Y1344016D2*
Y1071018D1*
X2174988Y993819D1*
X1151248Y1443516D2*
Y1506516D1*
Y1694016D1*
X2677988Y1535827D2*
Y1602988D1*
X2719016Y1644016D1*
Y1488827D2*
Y1044016D1*
X2334945Y1685043D2*
X2444043D1*
X2460043Y1669043D1*
Y1102988D1*
X2519016Y1044016D1*
X2097787Y1694016D2*
Y1602988D1*
X2113787Y1586988D1*
X2403016D1*
X2419016Y1570988D1*
Y1044016D1*
X2160787Y1644016D2*
X2419016D1*
X2819016Y1441831D2*
Y1044016D1*
X2177646Y1394016D2*
X2319543D1*
X2335543Y1378016D1*
Y939197D1*
X2351546Y923194D1*
X2706886D1*
X2722886Y907194D1*
Y819016D1*
X2174988Y1106516D2*
X2240543Y1040959D1*
Y547516D1*
X2256543Y531516D1*
X2456516D1*
X999382Y1406949D2*
Y1715988D1*
X983382Y1731988D1*
X718563D1*
X702563Y1715988D1*
Y1427563D1*
X531516Y1256516D1*
X946409Y1684488D2*
X830909D1*
X814909Y1668488D1*
Y803516D1*
X830909Y787516D1*
X910791D1*
X926791Y803516D1*
Y966543D1*
X783409Y1223543D2*
Y753563D1*
X799409Y737563D1*
X1576508D1*
X1437783Y1375449D2*
X917201D1*
X901201Y1359449D1*
Y1115602D1*
X1131516Y814354D2*
Y952280D1*
X652161Y1156516D2*
X531516D1*
X1003563Y1343949D2*
X1092467Y1255043D1*
X2061547D1*
X2077547Y1239043D1*
Y967013D1*
X2125543Y919016D1*
Y496646D1*
X2141543Y480646D1*
X2505646D1*
X2556516Y531516D1*
X846409Y1621492D2*
X952382Y1515520D1*
Y1406949D1*
X1074425Y1115602D2*
X1174748Y1015280D1*
X1431516D1*
X1080335Y983780D2*
X1381516D1*
D46*
X2288043Y1275004D3*
Y919016D3*
X1642429Y872020D3*
X736409Y1194602D3*
X948201Y1115602D3*
X2006358Y1181516D3*
X1046382Y1438449D3*
X1605520Y1406949D3*
X973791Y990736D3*
X1943358Y1153713D3*
X719016Y555823D3*
X1445571D3*
X1076606D3*
X1481516Y983783D3*
X2177646Y1344016D3*
X3100543Y893819D3*
X1413409Y1131602D3*
X846409Y819016D3*
Y1281516D3*
X2950543Y846819D3*
X1090409Y894016D3*
X846409Y1119016D3*
Y969016D3*
X1938437Y1531516D3*
X1770524Y794016D3*
Y956106D3*
X2956516Y1504386D3*
X1745524Y1531516D3*
X1009472Y1131602D3*
X618925Y1119016D3*
X1281516Y1188043D3*
X1009472Y1207543D3*
X1974858Y1106713D3*
X2174988Y993819D3*
X2097787Y1344016D3*
X1151248Y1694016D3*
Y1443516D3*
Y1506516D3*
X2677988Y1535827D3*
X2719016Y1488827D3*
X2334945Y1685043D3*
X2097787Y1694016D3*
X2160787Y1644016D3*
X2819016Y1441831D3*
X2722886Y819016D3*
X2177646Y1394016D3*
X2174988Y1106516D3*
X999382Y1406949D3*
X926791Y966543D3*
X946409Y1684488D3*
X1576508Y737563D3*
X783409Y1223543D3*
X901201Y1115602D3*
X1437783Y1375449D3*
X1131516Y952280D3*
Y814354D3*
X652161Y1156516D3*
X1003563Y1343949D3*
X2125543Y919016D3*
X952382Y1406949D3*
X846409Y1621492D3*
X1431516Y1015280D3*
X1074425Y1115602D3*
X1381516Y983780D3*
X1080335D3*
D23*
X2419016Y1044016D3*
D24*
X2519016D3*
X2619016D3*
X2719016D3*
X2819016D3*
Y1644016D3*
X2719016D3*
X2619016D3*
X2519016D3*
X2419016D3*
D30*
X531516Y856516D3*
D31*
Y956516D3*
Y1056516D3*
Y1156516D3*
Y1256516D3*
Y1356516D3*
D32*
X3631516Y1395404D3*
D33*
Y1198554D3*
D32*
Y1001605D3*
D33*
Y804755D3*
D35*
X2456516Y531516D3*
D36*
X2556516D3*
X2656516D3*
Y831516D3*
X2556516D3*
X2456535D3*
D107*
X2944016Y556516D3*
D41*
X2994016D3*
X3044016D3*
M02*
