%TF.GenerationSoftware,Novarm,DipTrace,3.0.0.2*%
%TF.CreationDate,2017-02-07T17:04:20+02:00*%
%FSLAX26Y26*%
%MOIN*%
%TF.FileFunction,Copper,L1,Top*%
%TF.Part,Single*%
%AMOUTLINE0*
4,1,8,
-0.019685,-0.029528,
-0.009843,-0.03937,
0.009843,-0.03937,
0.019685,-0.029528,
0.019685,0.029528,
0.009843,0.03937,
-0.009843,0.03937,
-0.019685,0.029528,
-0.019685,-0.029528,
0*%
%TA.AperFunction,Conductor*%
%ADD13C,0.009*%
%ADD18R,0.051181X0.059055*%
%ADD20R,0.124016X0.062992*%
%ADD22R,0.094488X0.094488*%
%TA.AperFunction,ComponentPad*%
%ADD23R,0.059055X0.059055*%
%ADD24C,0.059055*%
%ADD26R,0.015748X0.05315*%
%ADD27R,0.062992X0.055118*%
%ADD28R,0.057087X0.051181*%
%ADD29R,0.074803X0.074803*%
%TA.AperFunction,ComponentPad*%
%ADD30R,0.06378X0.06378*%
%ADD31C,0.06378*%
%ADD32R,0.098425X0.098425*%
%ADD33C,0.098425*%
%ADD34R,0.059055X0.051181*%
%TA.AperFunction,ComponentPad*%
%ADD35R,0.07874X0.07874*%
%ADD36C,0.07874*%
%ADD38R,0.108268X0.03937*%
%ADD39R,0.242126X0.218504*%
%ADD40R,0.023622X0.07874*%
%TA.AperFunction,ComponentPad*%
%ADD41O,0.03937X0.07874*%
%ADD42R,0.015748X0.070866*%
%ADD43R,0.07874X0.023622*%
%ADD45R,0.216535X0.070866*%
%TA.AperFunction,ViaPad*%
%ADD46C,0.04*%
%TA.AperFunction,ComponentPad*%
%ADD107OUTLINE0*%
G75*
G01*
%LPD*%
X1707512Y1589996D2*
D13*
X1556004D1*
X1423016Y1457008D1*
X1153409D1*
X1137409Y1441008D1*
Y1381948D1*
X1131500Y1376039D1*
Y1281500D1*
X2174972Y919000D2*
X2231500D1*
X825303Y1191528D2*
X840803Y1176028D1*
X961957D1*
X977957Y1192028D1*
Y1281500D1*
X3005782Y1228736D2*
Y1295106D1*
X2955782D1*
Y1228736D1*
Y1162366D1*
X1975343Y1181500D2*
X2069000D1*
X977957Y990720D2*
Y1053154D1*
X1166378Y1312433D2*
Y1417311D1*
X1182378Y1433311D1*
X1908228D1*
X1942228Y1467311D1*
X2082272D1*
X2108961Y1494000D1*
X2244000D1*
X901185Y1343933D2*
Y1281500D1*
X952366Y1115587D2*
Y1053154D1*
X2160772Y1394000D2*
X2244000D1*
X719000Y555803D2*
Y819000D1*
X1395916Y459350D2*
X1451461D1*
Y500941D1*
X1135089Y555807D2*
X1076591Y555803D1*
X1451461Y500941D2*
X1387058D1*
Y555807D1*
X1076591Y555803D2*
Y459350D1*
X1126231D1*
X793803Y1281500D2*
Y1160028D1*
X987547D1*
X1003547Y1144028D1*
Y1053154D1*
X1849413Y1531500D2*
X1938421D1*
Y1652972D1*
X1381303D1*
X893803D1*
Y1694000D1*
X2894000Y893803D2*
Y856091D1*
X2950528D1*
X531500Y1056500D2*
X740091D1*
X756091Y1072500D1*
Y1119000D1*
X793803D1*
X1874413Y794000D2*
X1947921D1*
X1963421D1*
Y824228D1*
X1947421Y840228D1*
X1481500D1*
X606390Y888000D2*
X634362Y860028D1*
X793803D1*
Y819000D1*
X1947921Y794000D2*
X1990913Y751008D1*
X2069000D1*
Y781500D1*
X1356303Y1281500D2*
Y1131500D1*
X793803Y1119000D2*
Y969000D1*
X1156500Y894000D2*
X1058894D1*
X2177630Y1344000D2*
X2244000D1*
X3194000Y893803D2*
X3306472D1*
X3356500D1*
X1381303Y1652972D2*
Y1694000D1*
X3055782Y1441334D2*
Y1406500D1*
X3106500D1*
X3194000Y893803D2*
Y1074018D1*
X3055782Y1212236D1*
Y1441334D1*
X2950528Y856091D2*
X3194000D1*
Y893803D1*
X793803Y1119000D2*
Y1160028D1*
X1481500Y694000D2*
Y610866D1*
X1465500Y594866D1*
X1347630D1*
X1331630Y578866D1*
Y516748D1*
X1312254D1*
Y564665D1*
X1481500Y840228D2*
Y694000D1*
Y840228D2*
D3*
Y906598D2*
Y977469D1*
Y840228D2*
Y906598D1*
X793803Y819000D2*
X1397579D1*
X1418807Y840228D1*
X1481500D1*
X2231500Y781500D2*
Y831500D1*
X2456520D1*
X2069000Y781500D2*
X2231500D1*
X1481500Y1131500D2*
X1597134D1*
X1613134Y1147500D1*
Y1228000D1*
X1597134Y1244000D1*
X1531500D1*
X1356303Y1131500D2*
X1481500D1*
X1058894Y894000D2*
X1006303D1*
X1261073Y564665D2*
Y610866D1*
X1365500D1*
X1381500Y626866D1*
Y694000D1*
X1235483Y564665D2*
Y610866D1*
X1251483Y626866D1*
X1338811D1*
X1354811Y642866D1*
Y744870D1*
X1431500D1*
Y694000D1*
X2619000Y1044000D2*
X2561972Y1101028D1*
X2392992D1*
X2322858Y1030894D1*
X1905812D1*
X1891890Y1016972D1*
X1770508D1*
X2619000Y1644000D2*
X2660028Y1685028D1*
X2956500D1*
Y1619098D1*
X3169606Y1569000D2*
X3281500D1*
X1770508Y794000D2*
X1681500D1*
X931500Y894000D2*
X735000D1*
X719000Y910000D1*
Y969000D1*
X1331500Y906598D2*
Y852972D1*
X931500D1*
Y894000D1*
X1531500Y1064472D2*
X1347500D1*
X1331500Y1048472D1*
Y906598D1*
X1770508Y1016972D2*
X1664110D1*
X1616610Y1064472D1*
X1531500D1*
X2956500Y1406500D2*
Y1441334D1*
X2905782D1*
X2956500Y1619098D2*
Y1406500D1*
X2069000Y993803D2*
Y956091D1*
X2137260D1*
X2174972Y993803D1*
X1029138Y1053154D2*
Y1281500D1*
X1281500Y1022220D2*
Y1131500D1*
X1745508Y1531500D2*
X1656500D1*
X2097772Y1344000D2*
X2031402D1*
X2069000Y1106697D2*
X2125528D1*
Y1143591D1*
X2158764D1*
X2231500Y993803D2*
X2691370D1*
X2707370Y977803D1*
Y639525D1*
X2723370Y623525D1*
X3027999D1*
X3044000Y607524D1*
Y556500D1*
X2174972Y993803D2*
X2231500D1*
X719000Y1119000D2*
X670539D1*
X651429Y1099890D1*
X488110D1*
X472110Y1083890D1*
Y915890D1*
X531500Y856500D1*
X719000Y1281500D2*
Y1119000D1*
X1029138Y1281500D2*
X1035047D1*
Y1423500D1*
X1019047Y1439500D1*
X735000D1*
X719000Y1423500D1*
Y1281500D1*
X1029138D2*
D3*
X1795280Y1290488D2*
Y1154236D1*
X1281500Y1281500D2*
Y1322528D1*
X1763240D1*
X1795280Y1290488D1*
X1281500Y1131500D2*
Y1281500D1*
X2158764Y1143591D2*
X2231500D1*
Y1181303D1*
X3106500Y1619098D2*
Y1505370D1*
X3122500Y1489370D1*
X3708213D1*
X3724213Y1473370D1*
Y897452D1*
X3631500Y804739D1*
X881500Y520772D2*
X963468Y602740D1*
X1209892D1*
Y564665D1*
X819000Y1694000D2*
X781909D1*
X765909Y1678000D1*
Y1522500D1*
X781909Y1506500D1*
X906500D1*
X1054728D1*
X1070728Y1490500D1*
Y1365300D1*
X1080319Y1355709D1*
Y1281500D1*
X1151232Y1694000D2*
X1306500D1*
X1105909Y1435240D2*
Y1281500D1*
X1151232Y1506500D2*
X1286500D1*
X2556500Y743787D2*
X2176618D1*
X2139528Y706697D1*
X2069000D1*
X2231500D2*
X2640500D1*
X2656500Y722697D1*
Y831500D1*
X3005782Y1441334D2*
Y1345687D1*
X3006500Y1344969D1*
Y1406500D1*
X2955782Y1441334D2*
Y1177232D1*
X3063811D1*
X3079811Y1193232D1*
Y1299315D1*
X3056500Y1322626D1*
Y1406500D1*
X2244000Y1544000D2*
X2436425D1*
X2513669Y1466756D1*
X2703000D1*
X2719000Y1482756D1*
Y1644000D1*
X2658972Y1600228D2*
X2652744Y1594000D1*
X2244000D1*
X2650500Y1513752D2*
X2596941Y1567311D1*
X2193130D1*
Y1644000D1*
X2244000D1*
X2346472Y1685028D2*
X2337500Y1694000D1*
X2244000D1*
X2097772D2*
X2031402D1*
Y1644000D2*
X2092618D1*
X2165929Y1717311D1*
X2445689D1*
X2519000Y1644000D1*
X2129272Y1594000D2*
X2031402D1*
X2819000Y1450756D2*
X2410075D1*
X2343520Y1517311D1*
X2160945D1*
X2134256Y1544000D1*
X2031402D1*
X2894000Y819000D2*
X2792028D1*
X2776028Y835000D1*
Y1239461D1*
X2760028Y1255461D1*
X2145272D1*
X2129272Y1271461D1*
Y1378000D1*
X2113272Y1394000D1*
X2031402D1*
X3056500Y1619098D2*
Y1489370D1*
X3072500Y1473370D1*
X3676213D1*
X3692213Y1457370D1*
Y1062302D1*
X3631500Y1001589D1*
X3006500Y1619098D2*
Y1473370D1*
X3022500Y1457370D1*
X3194000D1*
X3210000Y1441370D1*
Y1214539D1*
X3226001Y1198538D1*
X3631500D1*
X3281500Y1395772D2*
X3538597D1*
X3538981Y1395388D1*
X3631500D1*
X881500Y694000D2*
X1331500D1*
X3044000Y893803D2*
X2972500D1*
X2905782Y960521D1*
Y1228736D1*
X2288028Y1106500D2*
X2231500D1*
Y1069409D1*
X1943843D1*
X1927843Y1085409D1*
Y1322528D1*
X1911843Y1338528D1*
X1245378D1*
X1229378Y1322528D1*
Y1207032D1*
X1197874Y1175528D1*
X1181874Y1191528D1*
X1070728D1*
X1054728Y1207528D1*
Y1281500D1*
Y1439500D1*
X1038728Y1455500D1*
X596787D1*
X1197874Y1175528D2*
Y968457D1*
X1231303Y935028D1*
Y894000D1*
X1027398Y966528D2*
X1011898Y951028D1*
X942776D1*
X926776Y967028D1*
Y1053154D1*
X1551492Y1488504D2*
X2004709D1*
X2010205Y1494000D1*
X2031402D1*
X926776Y1207528D2*
Y1281500D1*
X3044000Y819000D2*
Y781909D1*
X2776028D1*
X2760028Y797909D1*
Y1202591D1*
X2744028Y1218591D1*
X1959843D1*
X1943843Y1234591D1*
Y1354028D1*
X1927843Y1370028D1*
X1387346D1*
X3194000Y819000D2*
X3044000D1*
X3356500D2*
X3299472D1*
X3194000D1*
X901185Y1115587D2*
Y1053146D1*
X1197878Y1254528D2*
Y1401311D1*
X1213878Y1417311D1*
X2084925D1*
X2111614Y1444000D1*
X2244000D1*
X1131500Y1053154D2*
Y951028D1*
X1115500Y935028D1*
X854111D1*
X847055Y927972D1*
X756091D1*
Y1010028D1*
X585028D1*
X531500Y956500D1*
X1105909Y1115587D2*
Y1053154D1*
X2069000Y866409D2*
Y919000D1*
X1003547Y1343933D2*
Y1281500D1*
X952366Y1343933D2*
Y1281500D1*
Y1710000D2*
X993394Y1751028D1*
X2963811D1*
X2979811Y1735028D1*
Y1129870D1*
X2995811Y1113870D1*
X3090500D1*
X3055782Y1148588D1*
Y1228736D1*
X1166374Y1147087D2*
X1070728D1*
X1054728Y1131087D1*
Y1053154D1*
X1396996Y1019969D2*
X1431500Y985465D1*
Y906598D1*
X1381500Y972969D2*
Y906598D1*
X1080319Y972969D2*
Y1053154D1*
D46*
X1707512Y1589996D3*
X2174972Y919000D3*
X825303Y1191528D3*
X2955782Y1162366D3*
X1166378Y1312433D3*
X901185Y1343933D3*
X952366Y1115587D3*
X2160772Y1394000D3*
X719000Y555803D3*
X1451461Y500941D3*
X1076591Y555803D3*
X1938421Y1652972D3*
X606390Y888000D3*
X1481500Y1131500D3*
Y977469D3*
Y840228D3*
X2950528Y856091D3*
X1058894Y894000D3*
X2177630Y1344000D3*
X3169606Y1569000D3*
X1770508Y794000D3*
Y1016972D3*
X1281500Y1022220D3*
X1745508Y1531500D3*
X2097772Y1344000D3*
X1795280Y1290488D3*
X2158764Y1143591D3*
X2174972Y993803D3*
X1151232Y1694000D3*
X1105909Y1435240D3*
X1151232Y1506500D3*
X2556500Y743787D3*
X2658972Y1600228D3*
X2650500Y1513752D3*
X2346472Y1685028D3*
X2097772Y1694000D3*
X2129272Y1594000D3*
X2819000Y1450756D3*
X596787Y1455500D3*
X2288028Y1106500D3*
X1027398Y966528D3*
X1551492Y1488504D3*
X1387346Y1370028D3*
X926776Y1207528D3*
X901185Y1115587D3*
X1197878Y1254528D3*
X1105909Y1115587D3*
X2069000Y866409D3*
X1003547Y1343933D3*
X952366D3*
Y1710000D3*
X1166374Y1147087D3*
X1396996Y1019969D3*
X1381500Y972969D3*
X1080319D3*
X1975343Y1181500D3*
X977957Y990720D3*
D18*
X719000Y1281500D3*
X793803D3*
X719000Y1119000D3*
X793803D3*
X1281500Y1281500D3*
X1356303D3*
X1281500Y1131500D3*
X1356303D3*
D20*
X1681500Y794000D3*
X1874413D3*
X1656500Y1531500D3*
X1849413D3*
D18*
X719000Y969000D3*
X793803D3*
X931500Y894000D3*
X1006303D3*
X719000Y819000D3*
X793803D3*
X1156500Y894000D3*
X1231303D3*
X819000Y1694000D3*
X893803D3*
X1306500D3*
X1381303D3*
D22*
X881500Y694000D3*
Y520772D3*
X3281500Y1569000D3*
Y1395772D3*
D23*
X2419000Y1044000D3*
D24*
X2519000D3*
X2619000D3*
X2719000D3*
X2819000D3*
Y1644000D3*
X2719000D3*
X2619000D3*
X2519000D3*
X2419000D3*
D26*
X1209892Y564665D3*
X1235483D3*
X1261073D3*
X1286664D3*
X1312254D3*
D27*
X1135089Y555807D3*
X1387058D3*
D28*
X1126231Y459350D3*
X1395916D3*
D29*
X1213829D3*
X1308317D3*
D30*
X531500Y856500D3*
D31*
Y956500D3*
Y1056500D3*
Y1156500D3*
Y1256500D3*
Y1356500D3*
D32*
X3631500Y1395388D3*
D33*
Y1198538D3*
D32*
Y1001589D3*
D33*
Y804739D3*
D34*
X2069000Y1181500D3*
Y1106697D3*
X2231500Y1106500D3*
Y1181303D3*
X2069000Y919000D3*
Y993803D3*
X2231500Y919000D3*
Y993803D3*
X2069000Y781500D3*
Y706697D3*
X2231500Y781500D3*
Y706697D3*
X2894000Y819000D3*
Y893803D3*
X3044000Y819000D3*
Y893803D3*
X3194000Y819000D3*
Y893803D3*
X3356500Y819000D3*
Y893803D3*
D35*
X2456500Y531500D3*
D36*
X2556500D3*
X2656500D3*
Y831500D3*
X2556500D3*
X2456520D3*
D38*
X1531500Y1244000D3*
Y1064472D3*
D39*
X1795280Y1154236D3*
D40*
X1331500Y694000D3*
X1381500D3*
X1431500D3*
X1481500D3*
Y906598D3*
X1431500D3*
X1381500D3*
X1331500D3*
D107*
X2944000Y556500D3*
D41*
X2994000D3*
X3044000D3*
D42*
X1131500Y1281500D3*
X1105909D3*
X1080319D3*
X1054728D3*
X1029138D3*
X1003547D3*
X977957D3*
X952366D3*
X926776D3*
X901185D3*
Y1053146D3*
X926776Y1053154D3*
X952366D3*
X977957D3*
X1003547D3*
X1029138D3*
X1054728D3*
X1080319D3*
X1105909D3*
X1131500D3*
D43*
X2244000Y1344000D3*
Y1394000D3*
Y1444000D3*
Y1494000D3*
Y1544000D3*
Y1594000D3*
Y1644000D3*
Y1694000D3*
X2031402D3*
Y1644000D3*
Y1594000D3*
Y1544000D3*
Y1494000D3*
Y1444000D3*
Y1394000D3*
Y1344000D3*
D40*
X2905782Y1228736D3*
X2955782D3*
X3005782D3*
X3055782D3*
Y1441334D3*
X3005782D3*
X2955782D3*
X2905782D3*
X2956500Y1406500D3*
X3006500D3*
X3056500D3*
X3106500D3*
Y1619098D3*
X3056500D3*
X3006500D3*
X2956500D3*
D45*
X906500Y1506500D3*
X1286500D3*
M02*
