%TF.GenerationSoftware,Novarm,DipTrace,3.0.0.2*%
%TF.CreationDate,2017-02-07T18:04:18+02:00*%
%FSLAX26Y26*%
%MOIN*%
%TF.FileFunction,Drawing,Top*%
%TF.Part,Single*%
%ADD10C,0.009843*%
%ADD106C,0.003088*%
G75*
G01*
%LPD*%
X1083924Y402286D2*
D10*
X1438255D1*
X1290755Y388461D2*
D106*
X1278330D1*
Y368365D1*
X1290755D1*
X1278330Y378889D2*
X1285979D1*
X1296930Y388461D2*
Y368365D1*
X1303629D1*
X1306503Y369338D1*
X1308426Y371239D1*
X1309377Y373163D1*
X1310328Y376015D1*
Y380812D1*
X1309377Y383686D1*
X1308426Y385587D1*
X1306503Y387511D1*
X1303629Y388461D1*
X1296930D1*
X1330851Y383686D2*
X1329901Y385587D1*
X1327977Y387511D1*
X1326076Y388461D1*
X1322251D1*
X1320328Y387511D1*
X1318427Y385587D1*
X1317454Y383686D1*
X1316503Y380812D1*
Y376015D1*
X1317454Y373163D1*
X1318427Y371239D1*
X1320328Y369338D1*
X1322251Y368365D1*
X1326076D1*
X1327977Y369338D1*
X1329901Y371239D1*
X1330851Y373163D1*
Y376015D1*
X1326076D1*
X1349452Y388461D2*
X1337027D1*
Y368365D1*
X1349452D1*
X1337027Y378889D2*
X1344676D1*
X1158247Y388033D2*
Y367937D1*
X1166869D1*
X1169743Y368910D1*
X1170694Y369860D1*
X1171645Y371762D1*
Y374636D1*
X1170694Y376559D1*
X1169743Y377510D1*
X1166869Y378460D1*
X1169743Y379433D1*
X1170694Y380384D1*
X1171645Y382285D1*
Y384208D1*
X1170694Y386110D1*
X1169743Y387082D1*
X1166869Y388033D1*
X1158247D1*
Y378460D2*
X1166869D1*
X1183568Y388033D2*
X1181645Y387082D1*
X1179744Y385159D1*
X1178771Y383258D1*
X1177820Y380384D1*
Y375586D1*
X1178771Y372734D1*
X1179744Y370811D1*
X1181645Y368910D1*
X1183568Y367937D1*
X1187393D1*
X1189294Y368910D1*
X1191218Y370811D1*
X1192168Y372734D1*
X1193119Y375586D1*
Y380384D1*
X1192168Y383258D1*
X1191218Y385159D1*
X1189294Y387082D1*
X1187393Y388033D1*
X1183568D1*
X1214615Y367937D2*
X1206944Y388033D1*
X1199295Y367937D1*
X1202169Y374636D2*
X1211741D1*
X1220791Y378460D2*
X1229391D1*
X1232265Y379433D1*
X1233238Y380384D1*
X1234188Y382285D1*
Y384208D1*
X1233238Y386110D1*
X1232265Y387082D1*
X1229391Y388033D1*
X1220791D1*
Y367937D1*
X1227490Y378460D2*
X1234188Y367937D1*
X1240364Y388033D2*
Y367937D1*
X1247063D1*
X1249937Y368910D1*
X1251860Y370811D1*
X1252811Y372734D1*
X1253761Y375586D1*
Y380384D1*
X1252811Y383258D1*
X1251860Y385159D1*
X1249937Y387082D1*
X1247063Y388033D1*
X1240364D1*
M02*
