%TF.GenerationSoftware,Novarm,DipTrace,3.0.0.2*%
%TF.CreationDate,2017-02-07T18:04:21+02:00*%
%FSLAX26Y26*%
%MOIN*%
%TF.FileFunction,Soldermask,Top*%
%TF.Part,Single*%
%AMOUTLINE1*
4,1,8,
-0.023701,-0.031191,
-0.011506,-0.043386,
0.011506,-0.043386,
0.023701,-0.031191,
0.023701,0.031191,
0.011506,0.043386,
-0.011506,0.043386,
-0.023701,0.031191,
-0.023701,-0.031191,
0*%
%ADD48C,0.108268*%
%ADD57R,0.224567X0.078898*%
%ADD59R,0.086772X0.031654*%
%ADD61R,0.02378X0.078898*%
%ADD63O,0.047402X0.086772*%
%ADD65R,0.031654X0.086772*%
%ADD67R,0.250157X0.226535*%
%ADD69R,0.116299X0.047402*%
%ADD71C,0.086772*%
%ADD73R,0.086772X0.086772*%
%ADD75R,0.067087X0.059213*%
%ADD77C,0.106457*%
%ADD79R,0.106457X0.106457*%
%ADD81C,0.071811*%
%ADD83R,0.071811X0.071811*%
%ADD85R,0.082835X0.082835*%
%ADD87R,0.065118X0.059213*%
%ADD89R,0.071024X0.06315*%
%ADD91R,0.02378X0.061181*%
%ADD93C,0.067087*%
%ADD95R,0.067087X0.067087*%
%ADD97R,0.10252X0.10252*%
%ADD99R,0.132047X0.071024*%
%ADD101R,0.059213X0.067087*%
%ADD108OUTLINE1*%
G75*
G01*
%LPD*%
D101*
X719016Y1281516D3*
X793819D3*
X719016Y1119016D3*
X793819D3*
X1281516Y1281516D3*
X1356319D3*
X1281516Y1131516D3*
X1356319D3*
D99*
X1681516Y794016D3*
X1874429D3*
X1656516Y1531516D3*
X1849429D3*
D101*
X719016Y969016D3*
X793819D3*
X931516Y894016D3*
X1006319D3*
X719016Y819016D3*
X793819D3*
X1156516Y894016D3*
X1231319D3*
X819016Y1694016D3*
X893819D3*
X1306516D3*
X1381319D3*
D97*
X881516Y694016D3*
Y520787D3*
X3281516Y1569016D3*
Y1395787D3*
D95*
X2419016Y1044016D3*
D93*
X2519016D3*
X2619016D3*
X2719016D3*
X2819016D3*
Y1644016D3*
X2719016D3*
X2619016D3*
X2519016D3*
X2419016D3*
D48*
X569016Y556516D3*
Y1656516D3*
X4012436Y1675741D3*
X4016017Y574644D3*
D91*
X1209908Y564681D3*
X1235499D3*
X1261089D3*
X1286680D3*
X1312270D3*
D89*
X1135105Y555823D3*
X1387073D3*
D87*
X1126247Y459366D3*
X1395932D3*
D85*
X1213845D3*
X1308333D3*
D83*
X531516Y856516D3*
D81*
Y956516D3*
Y1056516D3*
Y1156516D3*
Y1256516D3*
Y1356516D3*
D79*
X3631516Y1395404D3*
D77*
Y1198554D3*
D79*
Y1001605D3*
D77*
Y804755D3*
D75*
X2069016Y1181516D3*
Y1106713D3*
X2231516Y1106516D3*
Y1181319D3*
X2069016Y919016D3*
Y993819D3*
X2231516Y919016D3*
Y993819D3*
X2069016Y781516D3*
Y706713D3*
X2231516Y781516D3*
Y706713D3*
X2894016Y819016D3*
Y893819D3*
X3044016Y819016D3*
Y893819D3*
X3194016Y819016D3*
Y893819D3*
X3356516Y819016D3*
Y893819D3*
D73*
X2456516Y531516D3*
D71*
X2556516D3*
X2656516D3*
Y831516D3*
X2556516D3*
X2456535D3*
D69*
X1531516Y1244016D3*
Y1064488D3*
D67*
X1795295Y1154252D3*
D65*
X1331516Y694016D3*
X1381516D3*
X1431516D3*
X1481516D3*
Y906614D3*
X1431516D3*
X1381516D3*
X1331516D3*
D108*
X2944016Y556516D3*
D63*
X2994016D3*
X3044016D3*
D61*
X1131516Y1281516D3*
X1105925D3*
X1080335D3*
X1054744D3*
X1029154D3*
X1003563D3*
X977972D3*
X952382D3*
X926791D3*
X901201D3*
Y1053161D3*
X926791Y1053169D3*
X952382D3*
X977972D3*
X1003563D3*
X1029154D3*
X1054744D3*
X1080335D3*
X1105925D3*
X1131516D3*
D59*
X2244016Y1344016D3*
Y1394016D3*
Y1444016D3*
Y1494016D3*
Y1544016D3*
Y1594016D3*
Y1644016D3*
Y1694016D3*
X2031417D3*
Y1644016D3*
Y1594016D3*
Y1544016D3*
Y1494016D3*
Y1444016D3*
Y1394016D3*
Y1344016D3*
D65*
X2962151Y1042789D3*
X3012151D3*
X3062151D3*
X3112151D3*
Y1255387D3*
X3062151D3*
X3012151D3*
X2962151D3*
X2956516Y1406516D3*
X3006516D3*
X3056516D3*
X3106516D3*
Y1619114D3*
X3056516D3*
X3006516D3*
X2956516D3*
D57*
X906516Y1506516D3*
X1286516D3*
M02*
