%TF.GenerationSoftware,Novarm,DipTrace,3.0.0.2*%
%TF.CreationDate,2017-02-07T17:04:19+02:00*%
%FSLAX26Y26*%
%MOIN*%
%TF.FileFunction,Soldermask,Top*%
%TF.Part,Single*%
%AMOUTLINE1*
4,1,8,
-0.023685,-0.031184,
-0.011499,-0.04337,
0.011499,-0.04337,
0.023685,-0.031184,
0.023685,0.031184,
0.011499,0.04337,
-0.011499,0.04337,
-0.023685,0.031184,
-0.023685,-0.031184,
0*%
%ADD48C,0.108268*%
%ADD57R,0.224535X0.078866*%
%ADD59R,0.08674X0.031622*%
%ADD61R,0.023748X0.078866*%
%ADD63O,0.04737X0.08674*%
%ADD65R,0.031622X0.08674*%
%ADD67R,0.250126X0.226504*%
%ADD69R,0.116268X0.04737*%
%ADD71C,0.08674*%
%ADD73R,0.08674X0.08674*%
%ADD75R,0.067055X0.059181*%
%ADD77C,0.106425*%
%ADD79R,0.106425X0.106425*%
%ADD81C,0.07178*%
%ADD83R,0.07178X0.07178*%
%ADD85R,0.082803X0.082803*%
%ADD87R,0.065087X0.059181*%
%ADD89R,0.070992X0.063118*%
%ADD91R,0.023748X0.06115*%
%ADD93C,0.067055*%
%ADD95R,0.067055X0.067055*%
%ADD97R,0.102488X0.102488*%
%ADD99R,0.132016X0.070992*%
%ADD101R,0.059181X0.067055*%
%ADD108OUTLINE1*%
G75*
G01*
%LPD*%
D101*
X719000Y1281500D3*
X793803D3*
X719000Y1119000D3*
X793803D3*
X1281500Y1281500D3*
X1356303D3*
X1281500Y1131500D3*
X1356303D3*
D99*
X1681500Y794000D3*
X1874413D3*
X1656500Y1531500D3*
X1849413D3*
D101*
X719000Y969000D3*
X793803D3*
X931500Y894000D3*
X1006303D3*
X719000Y819000D3*
X793803D3*
X1156500Y894000D3*
X1231303D3*
X819000Y1694000D3*
X893803D3*
X1306500D3*
X1381303D3*
D97*
X881500Y694000D3*
Y520772D3*
X3281500Y1569000D3*
Y1395772D3*
D95*
X2419000Y1044000D3*
D93*
X2519000D3*
X2619000D3*
X2719000D3*
X2819000D3*
Y1644000D3*
X2719000D3*
X2619000D3*
X2519000D3*
X2419000D3*
D48*
X569000Y556500D3*
Y1656500D3*
X4012420Y1675726D3*
X4016001Y574629D3*
D91*
X1209892Y564665D3*
X1235483D3*
X1261073D3*
X1286664D3*
X1312254D3*
D89*
X1135089Y555807D3*
X1387058D3*
D87*
X1126231Y459350D3*
X1395916D3*
D85*
X1213829D3*
X1308317D3*
D83*
X531500Y856500D3*
D81*
Y956500D3*
Y1056500D3*
Y1156500D3*
Y1256500D3*
Y1356500D3*
D79*
X3631500Y1395388D3*
D77*
Y1198538D3*
D79*
Y1001589D3*
D77*
Y804739D3*
D75*
X2069000Y1181500D3*
Y1106697D3*
X2231500Y1106500D3*
Y1181303D3*
X2069000Y919000D3*
Y993803D3*
X2231500Y919000D3*
Y993803D3*
X2069000Y781500D3*
Y706697D3*
X2231500Y781500D3*
Y706697D3*
X2894000Y819000D3*
Y893803D3*
X3044000Y819000D3*
Y893803D3*
X3194000Y819000D3*
Y893803D3*
X3356500Y819000D3*
Y893803D3*
D73*
X2456500Y531500D3*
D71*
X2556500D3*
X2656500D3*
Y831500D3*
X2556500D3*
X2456520D3*
D69*
X1531500Y1244000D3*
Y1064472D3*
D67*
X1795280Y1154236D3*
D65*
X1331500Y694000D3*
X1381500D3*
X1431500D3*
X1481500D3*
Y906598D3*
X1431500D3*
X1381500D3*
X1331500D3*
D108*
X2944000Y556500D3*
D63*
X2994000D3*
X3044000D3*
D61*
X1131500Y1281500D3*
X1105909D3*
X1080319D3*
X1054728D3*
X1029138D3*
X1003547D3*
X977957D3*
X952366D3*
X926776D3*
X901185D3*
Y1053146D3*
X926776Y1053154D3*
X952366D3*
X977957D3*
X1003547D3*
X1029138D3*
X1054728D3*
X1080319D3*
X1105909D3*
X1131500D3*
D59*
X2244000Y1344000D3*
Y1394000D3*
Y1444000D3*
Y1494000D3*
Y1544000D3*
Y1594000D3*
Y1644000D3*
Y1694000D3*
X2031402D3*
Y1644000D3*
Y1594000D3*
Y1544000D3*
Y1494000D3*
Y1444000D3*
Y1394000D3*
Y1344000D3*
D65*
X2905782Y1228736D3*
X2955782D3*
X3005782D3*
X3055782D3*
Y1441334D3*
X3005782D3*
X2955782D3*
X2905782D3*
X2956500Y1406500D3*
X3006500D3*
X3056500D3*
X3106500D3*
Y1619098D3*
X3056500D3*
X3006500D3*
X2956500D3*
D57*
X906500Y1506500D3*
X1286500D3*
M02*
