%TF.GenerationSoftware,Novarm,DipTrace,3.0.0.2*%
%TF.CreationDate,2017-02-07T17:04:20+02:00*%
%FSLAX26Y26*%
%MOIN*%
%TF.FileFunction,Paste,Top*%
%TF.Part,Single*%
%ADD58R,0.208535X0.062866*%
%ADD60R,0.07074X0.015622*%
%ADD62R,0.007748X0.062866*%
%ADD66R,0.015622X0.07074*%
%ADD68R,0.234126X0.210504*%
%ADD70R,0.100268X0.03137*%
%ADD76R,0.051055X0.043181*%
%ADD86R,0.066803X0.066803*%
%ADD88R,0.049087X0.043181*%
%ADD90R,0.054992X0.047118*%
%ADD92R,0.007748X0.04515*%
%ADD98R,0.086488X0.086488*%
%ADD100R,0.116016X0.054992*%
%ADD102R,0.043181X0.051055*%
G75*
G01*
%LPD*%
D102*
X719000Y1281500D3*
X793803D3*
X719000Y1119000D3*
X793803D3*
X1281500Y1281500D3*
X1356303D3*
X1281500Y1131500D3*
X1356303D3*
D100*
X1681500Y794000D3*
X1874413D3*
X1656500Y1531500D3*
X1849413D3*
D102*
X719000Y969000D3*
X793803D3*
X931500Y894000D3*
X1006303D3*
X719000Y819000D3*
X793803D3*
X1156500Y894000D3*
X1231303D3*
X819000Y1694000D3*
X893803D3*
X1306500D3*
X1381303D3*
D98*
X881500Y694000D3*
Y520772D3*
X3281500Y1569000D3*
Y1395772D3*
D92*
X1209892Y564665D3*
X1235483D3*
X1261073D3*
X1286664D3*
X1312254D3*
D90*
X1135089Y555807D3*
X1387058D3*
D88*
X1126231Y459350D3*
X1395916D3*
D86*
X1213829D3*
X1308317D3*
D76*
X2069000Y1181500D3*
Y1106697D3*
X2231500Y1106500D3*
Y1181303D3*
X2069000Y919000D3*
Y993803D3*
X2231500Y919000D3*
Y993803D3*
X2069000Y781500D3*
Y706697D3*
X2231500Y781500D3*
Y706697D3*
X2894000Y819000D3*
Y893803D3*
X3044000Y819000D3*
Y893803D3*
X3194000Y819000D3*
Y893803D3*
X3356500Y819000D3*
Y893803D3*
D70*
X1531500Y1244000D3*
Y1064472D3*
D68*
X1795280Y1154236D3*
D66*
X1331500Y694000D3*
X1381500D3*
X1431500D3*
X1481500D3*
Y906598D3*
X1431500D3*
X1381500D3*
X1331500D3*
D62*
X1131500Y1281500D3*
X1105909D3*
X1080319D3*
X1054728D3*
X1029138D3*
X1003547D3*
X977957D3*
X952366D3*
X926776D3*
X901185D3*
Y1053146D3*
X926776Y1053154D3*
X952366D3*
X977957D3*
X1003547D3*
X1029138D3*
X1054728D3*
X1080319D3*
X1105909D3*
X1131500D3*
D60*
X2244000Y1344000D3*
Y1394000D3*
Y1444000D3*
Y1494000D3*
Y1544000D3*
Y1594000D3*
Y1644000D3*
Y1694000D3*
X2031402D3*
Y1644000D3*
Y1594000D3*
Y1544000D3*
Y1494000D3*
Y1444000D3*
Y1394000D3*
Y1344000D3*
D66*
X2905782Y1228736D3*
X2955782D3*
X3005782D3*
X3055782D3*
Y1441334D3*
X3005782D3*
X2955782D3*
X2905782D3*
X2956500Y1406500D3*
X3006500D3*
X3056500D3*
X3106500D3*
Y1619098D3*
X3056500D3*
X3006500D3*
X2956500D3*
D58*
X906500Y1506500D3*
X1286500D3*
M02*
