%TF.GenerationSoftware,Novarm,DipTrace,3.0.0.2*%
%TF.CreationDate,2017-02-07T18:04:20+02:00*%
%FSLAX26Y26*%
%MOIN*%
%TF.FileFunction,Legend,Top*%
%TF.Part,Single*%
%ADD10C,0.009843*%
%ADD14C,0.02*%
%ADD15O,0.039448X0.045083*%
%ADD19C,0.023606*%
%ADD21C,0.023613*%
%ADD25C,0.015768*%
%ADD37C,0.015408*%
%ADD44O,0.02577X0.025955*%
%ADD103C,0.00772*%
%ADD104C,0.009264*%
%ADD105C,0.015439*%
G75*
G01*
%LPD*%
X677656Y1255945D2*
D10*
Y1307087D1*
Y1093445D2*
Y1144587D1*
X1240156Y1255945D2*
Y1307087D1*
Y1105945D2*
Y1157087D1*
X1907876Y923937D2*
X1907909Y843230D1*
X1907876Y923937D2*
X1691371D1*
X1648076Y880621D2*
X1691371Y923937D1*
X1648076Y880621D2*
Y843230D1*
X1907909Y744802D2*
X1907876Y664094D1*
X1691371D1*
X1648076Y707410D2*
X1691371Y664094D1*
X1648076Y744802D2*
Y707410D1*
D19*
X1624421Y851090D3*
X1882876Y1661437D2*
D10*
X1882909Y1580730D1*
X1882876Y1661437D2*
X1666371D1*
X1623076Y1618121D2*
X1666371Y1661437D1*
X1623076Y1618121D2*
Y1580730D1*
X1882909Y1482302D2*
X1882876Y1401594D1*
X1666371D1*
X1623076Y1444910D2*
X1666371Y1401594D1*
X1623076Y1482302D2*
Y1444910D1*
D19*
X1599421Y1588590D3*
X677656Y943445D2*
D10*
Y994587D1*
X890156Y868445D2*
Y919587D1*
X677656Y793445D2*
Y844587D1*
X1115156Y868445D2*
Y919587D1*
X777656Y1668445D2*
Y1719587D1*
X1265156Y1668445D2*
Y1719587D1*
X952385Y695988D2*
Y518816D1*
X810649Y695988D2*
Y518816D1*
X952385D2*
X942535D1*
X952385Y695988D2*
X942535D1*
X820500Y518816D2*
X810649D1*
X820500Y695988D2*
X810649D1*
D21*
X881517Y767830D3*
X3352385Y1570988D2*
D10*
Y1393816D1*
X3210649Y1570988D2*
Y1393816D1*
X3352385D2*
X3342535D1*
X3352385Y1570988D2*
X3342535D1*
X3220500Y1393816D2*
X3210649D1*
X3220500Y1570988D2*
X3210649D1*
D21*
X3281517Y1642830D3*
X2865965Y972598D2*
D10*
Y1715433D1*
X2372066D2*
X2865965D1*
X2372066D2*
Y972598D1*
X2865965D2*
X2372066D1*
D25*
X1209906Y610931D3*
X1111491Y511327D2*
D10*
Y501876D1*
Y416046D2*
Y351098D1*
X1410688D1*
Y416046D1*
Y511327D2*
Y501876D1*
X133878Y796673D2*
X468523D1*
Y1416358D1*
X133878D1*
Y796673D1*
X3474035Y1517451D2*
Y1100129D1*
X3828366D1*
Y1517451D1*
X3474035D1*
G36*
X3508760Y1410992D2*
X3477260D1*
Y1379610D1*
X3508760D1*
Y1410992D1*
G37*
G36*
Y1214266D2*
X3477260D1*
Y1182842D1*
X3508760D1*
Y1214266D1*
G37*
X3474035Y1123652D2*
D10*
Y706329D1*
X3828366D1*
Y1123652D1*
X3474035D1*
G36*
X3508760Y1017193D2*
X3477260D1*
Y985810D1*
X3508760D1*
Y1017193D1*
G37*
G36*
Y820467D2*
X3477260D1*
Y789043D1*
X3508760D1*
Y820467D1*
G37*
X2367539Y520083D2*
D10*
Y842938D1*
X2399023D1*
X2367539Y520083D2*
X2402991D1*
X2745492D2*
Y842938D1*
X2717939D1*
X2745492Y520083D2*
X2717939D1*
G36*
X2435155Y436240D2*
X2482399D1*
Y471664D1*
X2435155D1*
Y436240D1*
G37*
G36*
X2533612D2*
X2580856D1*
Y471664D1*
X2533612D1*
Y436240D1*
G37*
G36*
X2632031D2*
X2679275D1*
Y471664D1*
X2632031D1*
Y436240D1*
G37*
X1602402Y1284178D2*
D10*
Y1024336D1*
X1877992Y1284178D2*
X1602402D1*
X1877992D2*
Y1276313D1*
Y1024336D2*
X1602402D1*
X1877992D2*
Y1032201D1*
D37*
X1487456Y1283245D3*
X1308089Y749127D2*
D10*
X1504943D1*
X1308089Y851503D2*
X1504943D1*
Y749127D2*
Y851503D1*
X1308089Y780620D2*
Y749127D1*
Y820009D2*
Y851503D1*
Y780620D2*
G03X1308089Y820009I-9J19694D01*
G01*
X2918395Y503373D2*
G02X3069636Y503373I75620J66569D01*
G01*
X2918395D1*
X1146288Y1230324D2*
X886428D1*
X1146288Y1104353D2*
X886428D1*
Y1230324D2*
Y1104353D1*
X1146288Y1230324D2*
Y1187027D1*
Y1147650D2*
Y1104353D1*
Y1187027D2*
G03X1146288Y1147650I-9J-19689D01*
G01*
X2188905Y1322181D2*
Y1715850D1*
X2086528Y1322181D2*
Y1715850D1*
X2188905D2*
X2086528D1*
X2188905Y1322181D2*
X2157411D1*
X2118022D2*
X2086528D1*
X2157411D2*
G03X2118022Y1322181I-19694J-11D01*
G01*
X2938724Y1097900D2*
X3135578D1*
X2938724Y1200276D2*
X3135578D1*
Y1097900D2*
Y1200276D1*
X2938724Y1129393D2*
Y1097900D1*
Y1168782D2*
Y1200276D1*
Y1129393D2*
G03X2938724Y1168782I-9J19694D01*
G01*
X2933089Y1461627D2*
X3129943D1*
X2933089Y1564003D2*
X3129943D1*
Y1461627D2*
Y1564003D1*
X2933089Y1493120D2*
Y1461627D1*
Y1532509D2*
Y1564003D1*
Y1493120D2*
G03X2933089Y1532509I-9J19694D01*
G01*
X895364Y1551493D2*
G02X961460Y1586530I66245J-45106D01*
G01*
X871503Y1551493D2*
Y1591508D1*
X1231512Y1586530D2*
G02X1297667Y1551493I-89J-80143D01*
G01*
X1321529D2*
Y1591508D1*
X1231512Y1456509D2*
X961460D1*
X1231512Y1426507D2*
X961460D1*
Y1556528D2*
X1231512D1*
X1311507Y1411515D2*
X881524D1*
X1311507D2*
G03X1321529Y1421490I37J9985D01*
G01*
Y1461525D1*
X1231512Y1456509D2*
G03X1253345Y1461525I3J50012D01*
G01*
X1231512Y1556528D2*
G02X1253345Y1551493I-123J-50388D01*
G01*
X1231512Y1426507D2*
G03X1297667Y1461525I-33J80061D01*
G01*
X895364D2*
G03X961460Y1426507I66189J45043D01*
G01*
X939687Y1461525D2*
G03X961460Y1456509I21831J44996D01*
G01*
X939687Y1551493D2*
G02X961460Y1556528I21958J-45356D01*
G01*
X871503Y1421490D2*
Y1461525D1*
Y1421490D2*
G03X881524Y1411515I9985J10D01*
G01*
X961460Y1586530D2*
X1231512D1*
X1311507Y1601522D2*
X881524D1*
X1311507D2*
G02X1321529Y1591508I4J-10017D01*
G01*
X871503D2*
G02X881524Y1601522I10017J-4D01*
G01*
X1086554Y1531504D2*
Y1481514D1*
X1106478D1*
Y1531504D1*
X1086554D1*
X1071521D2*
Y1506499D1*
Y1481514D1*
Y1506499D2*
X1056488D1*
X1121511Y1531504D2*
Y1506499D1*
Y1481514D1*
Y1506499D2*
X1136543D1*
D44*
X819843Y1574617D3*
X3143077Y717429D2*
D14*
X3421706D1*
Y448672D1*
X3143077D1*
Y717429D1*
D15*
X520132Y731712D3*
X752751Y1372328D2*
D103*
X750375Y1377081D1*
X745566Y1381890D1*
X740813Y1384266D1*
X731252D1*
X726443Y1381890D1*
X721690Y1377081D1*
X719258Y1372328D1*
X716881Y1365143D1*
Y1353150D1*
X719258Y1346020D1*
X721690Y1341211D1*
X726443Y1336458D1*
X731252Y1334026D1*
X740813D1*
X745566Y1336458D1*
X750375Y1341211D1*
X752751Y1346020D1*
X768191Y1374649D2*
X772999Y1377081D1*
X780184Y1384211D1*
Y1334026D1*
X742001Y1209828D2*
X739625Y1214581D1*
X734816Y1219390D1*
X730063Y1221766D1*
X720502D1*
X715693Y1219390D1*
X710940Y1214581D1*
X708508Y1209828D1*
X706132Y1202643D1*
Y1190650D1*
X708508Y1183520D1*
X710940Y1178711D1*
X715693Y1173958D1*
X720502Y1171526D1*
X730063D1*
X734816Y1173958D1*
X739625Y1178711D1*
X742001Y1183520D1*
X759873Y1209773D2*
Y1212149D1*
X762249Y1216958D1*
X764626Y1219335D1*
X769434Y1221711D1*
X778996D1*
X783749Y1219335D1*
X786126Y1216958D1*
X788557Y1212149D1*
Y1207396D1*
X786126Y1202588D1*
X781372Y1195458D1*
X757441Y1171526D1*
X790934D1*
X1304501Y1372328D2*
X1302125Y1377081D1*
X1297316Y1381890D1*
X1292563Y1384266D1*
X1283002D1*
X1278193Y1381890D1*
X1273440Y1377081D1*
X1271008Y1372328D1*
X1268632Y1365143D1*
Y1353150D1*
X1271008Y1346020D1*
X1273440Y1341211D1*
X1278193Y1336458D1*
X1283002Y1334026D1*
X1292563D1*
X1297316Y1336458D1*
X1302125Y1341211D1*
X1304501Y1346020D1*
X1324749Y1384211D2*
X1351002D1*
X1336687Y1365088D1*
X1343872D1*
X1348626Y1362711D1*
X1351002Y1360335D1*
X1353434Y1353150D1*
Y1348396D1*
X1351002Y1341211D1*
X1346249Y1336403D1*
X1339064Y1334026D1*
X1331879D1*
X1324749Y1336403D1*
X1322373Y1338835D1*
X1319941Y1343588D1*
X1303313Y1222328D2*
X1300937Y1227081D1*
X1296128Y1231890D1*
X1291375Y1234266D1*
X1281813D1*
X1277005Y1231890D1*
X1272252Y1227081D1*
X1269820Y1222328D1*
X1267443Y1215143D1*
Y1203150D1*
X1269820Y1196020D1*
X1272252Y1191211D1*
X1277005Y1186458D1*
X1281813Y1184026D1*
X1291375D1*
X1296128Y1186458D1*
X1300937Y1191211D1*
X1303313Y1196020D1*
X1342684Y1184026D2*
Y1234211D1*
X1318752Y1200773D1*
X1354622D1*
X1767996Y985222D2*
X1765620Y989975D1*
X1760811Y994783D1*
X1756058Y997160D1*
X1746496D1*
X1741688Y994783D1*
X1736935Y989975D1*
X1734503Y985222D1*
X1732126Y978037D1*
Y966043D1*
X1734503Y958914D1*
X1736935Y954105D1*
X1741688Y949352D1*
X1746496Y946920D1*
X1756058D1*
X1760811Y949352D1*
X1765620Y954105D1*
X1767996Y958914D1*
X1812120Y997105D2*
X1788244D1*
X1785867Y975605D1*
X1788244Y977982D1*
X1795429Y980413D1*
X1802559D1*
X1809744Y977982D1*
X1814552Y973228D1*
X1816929Y966043D1*
Y961290D1*
X1814552Y954105D1*
X1809744Y949297D1*
X1802559Y946920D1*
X1795429D1*
X1788244Y949297D1*
X1785867Y951729D1*
X1783435Y956482D1*
X1744212Y1722722D2*
X1741836Y1727475D1*
X1737027Y1732283D1*
X1732274Y1734660D1*
X1722712D1*
X1717904Y1732283D1*
X1713151Y1727475D1*
X1710719Y1722722D1*
X1708342Y1715537D1*
Y1703543D1*
X1710719Y1696414D1*
X1713151Y1691605D1*
X1717904Y1686852D1*
X1722712Y1684420D1*
X1732274D1*
X1737027Y1686852D1*
X1741836Y1691605D1*
X1744212Y1696414D1*
X1788336Y1727475D2*
X1785960Y1732228D1*
X1778775Y1734605D1*
X1774021D1*
X1766836Y1732228D1*
X1762028Y1725043D1*
X1759651Y1713105D1*
Y1701167D1*
X1762028Y1691605D1*
X1766836Y1686797D1*
X1774021Y1684420D1*
X1776398D1*
X1783528Y1686797D1*
X1788336Y1691605D1*
X1790713Y1698790D1*
Y1701167D1*
X1788336Y1708352D1*
X1783528Y1713105D1*
X1776398Y1715482D1*
X1774021D1*
X1766836Y1713105D1*
X1762028Y1708352D1*
X1759651Y1701167D1*
X742001Y1059828D2*
X739625Y1064581D1*
X734816Y1069390D1*
X730063Y1071766D1*
X720502D1*
X715693Y1069390D1*
X710940Y1064581D1*
X708508Y1059828D1*
X706132Y1052643D1*
Y1040650D1*
X708508Y1033520D1*
X710940Y1028711D1*
X715693Y1023958D1*
X720502Y1021526D1*
X730063D1*
X734816Y1023958D1*
X739625Y1028711D1*
X742001Y1033520D1*
X767002Y1021526D2*
X790934Y1071711D1*
X757441D1*
X954529Y984828D2*
X952153Y989581D1*
X947344Y994390D1*
X942591Y996766D1*
X933029D1*
X928221Y994390D1*
X923468Y989581D1*
X921036Y984828D1*
X918659Y977643D1*
Y965650D1*
X921036Y958520D1*
X923468Y953711D1*
X928221Y948958D1*
X933029Y946526D1*
X942591D1*
X947344Y948958D1*
X952153Y953711D1*
X954529Y958520D1*
X981907Y996711D2*
X974777Y994335D1*
X972345Y989581D1*
Y984773D1*
X974777Y980020D1*
X979530Y977588D1*
X989092Y975211D1*
X996277Y972835D1*
X1001030Y968026D1*
X1003406Y963273D1*
Y956088D1*
X1001030Y951335D1*
X998653Y948903D1*
X991468Y946526D1*
X981907D1*
X974777Y948903D1*
X972345Y951335D1*
X969968Y956088D1*
Y963273D1*
X972345Y968026D1*
X977153Y972835D1*
X984283Y975211D1*
X993845Y977588D1*
X998653Y980020D1*
X1001030Y984773D1*
Y989581D1*
X998653Y994335D1*
X991468Y996711D1*
X981907D1*
X743190Y909828D2*
X740813Y914581D1*
X736005Y919390D1*
X731252Y921766D1*
X721690D1*
X716881Y919390D1*
X712128Y914581D1*
X709696Y909828D1*
X707320Y902643D1*
Y890650D1*
X709696Y883520D1*
X712128Y878711D1*
X716881Y873958D1*
X721690Y871526D1*
X731252D1*
X736005Y873958D1*
X740813Y878711D1*
X743190Y883520D1*
X789746Y905020D2*
X787314Y897835D1*
X782561Y893026D1*
X775376Y890650D1*
X772999D1*
X765814Y893026D1*
X761061Y897835D1*
X758629Y905020D1*
Y907396D1*
X761061Y914581D1*
X765814Y919335D1*
X772999Y921711D1*
X775376D1*
X782561Y919335D1*
X787314Y914581D1*
X789746Y905020D1*
Y893026D1*
X787314Y881088D1*
X782561Y873903D1*
X775376Y871526D1*
X770623D1*
X763437Y873903D1*
X761061Y878711D1*
X1165785Y984828D2*
X1163409Y989581D1*
X1158600Y994390D1*
X1153847Y996766D1*
X1144285D1*
X1139477Y994390D1*
X1134724Y989581D1*
X1132292Y984828D1*
X1129915Y977643D1*
Y965650D1*
X1132292Y958520D1*
X1134724Y953711D1*
X1139477Y948958D1*
X1144285Y946526D1*
X1153847D1*
X1158600Y948958D1*
X1163409Y953711D1*
X1165785Y958520D1*
X1181224Y987149D2*
X1186033Y989581D1*
X1193218Y996711D1*
Y946526D1*
X1223027Y996711D2*
X1215842Y994335D1*
X1211034Y987149D1*
X1208657Y975211D1*
Y968026D1*
X1211034Y956088D1*
X1215842Y948903D1*
X1223027Y946526D1*
X1227780D1*
X1234965Y948903D1*
X1239719Y956088D1*
X1242150Y968026D1*
Y975211D1*
X1239719Y987149D1*
X1234965Y994335D1*
X1227780Y996711D1*
X1223027D1*
X1239719Y987149D2*
X1211034Y956088D1*
X839035Y1784828D2*
X836658Y1789581D1*
X831850Y1794390D1*
X827097Y1796766D1*
X817535D1*
X812727Y1794390D1*
X807974Y1789581D1*
X805542Y1784828D1*
X803165Y1777643D1*
Y1765650D1*
X805542Y1758520D1*
X807974Y1753711D1*
X812727Y1748958D1*
X817535Y1746526D1*
X827097D1*
X831850Y1748958D1*
X836658Y1753711D1*
X839035Y1758520D1*
X854474Y1787149D2*
X859283Y1789581D1*
X866468Y1796711D1*
Y1746526D1*
X881907Y1787149D2*
X886715Y1789581D1*
X893901Y1796711D1*
Y1746526D1*
X1315785Y1784828D2*
X1313409Y1789581D1*
X1308600Y1794390D1*
X1303847Y1796766D1*
X1294285D1*
X1289477Y1794390D1*
X1284724Y1789581D1*
X1282292Y1784828D1*
X1279915Y1777643D1*
Y1765650D1*
X1282292Y1758520D1*
X1284724Y1753711D1*
X1289477Y1748958D1*
X1294285Y1746526D1*
X1303847D1*
X1308600Y1748958D1*
X1313409Y1753711D1*
X1315785Y1758520D1*
X1331224Y1787149D2*
X1336033Y1789581D1*
X1343218Y1796711D1*
Y1746526D1*
X1361089Y1784773D2*
Y1787149D1*
X1363466Y1791958D1*
X1365842Y1794335D1*
X1370651Y1796711D1*
X1380212D1*
X1384965Y1794335D1*
X1387342Y1791958D1*
X1389774Y1787149D1*
Y1782396D1*
X1387342Y1777588D1*
X1382589Y1770458D1*
X1358657Y1746526D1*
X1392150D1*
X851054Y852869D2*
Y802629D1*
X867801D1*
X874986Y805061D1*
X879794Y809814D1*
X882171Y814622D1*
X884547Y821752D1*
Y833745D1*
X882171Y840931D1*
X879794Y845684D1*
X874986Y850492D1*
X867801Y852869D1*
X851054D1*
X899987Y843252D2*
X904795Y845684D1*
X911980Y852813D1*
Y802629D1*
X3240304Y1727869D2*
Y1677629D1*
X3257051D1*
X3264236Y1680061D1*
X3269044Y1684814D1*
X3271421Y1689622D1*
X3273797Y1696752D1*
Y1708745D1*
X3271421Y1715931D1*
X3269044Y1720684D1*
X3264236Y1725492D1*
X3257051Y1727869D1*
X3240304D1*
X3291669Y1715875D2*
Y1718252D1*
X3294045Y1723060D1*
X3296422Y1725437D1*
X3301230Y1727813D1*
X3310792D1*
X3315545Y1725437D1*
X3317922Y1723060D1*
X3320353Y1718252D1*
Y1713499D1*
X3317922Y1708690D1*
X3313168Y1701560D1*
X3289237Y1677629D1*
X3322730D1*
X2564086Y1788656D2*
Y1738416D1*
X2580833D1*
X2588018Y1740848D1*
X2592827Y1745601D1*
X2595203Y1750410D1*
X2597580Y1757539D1*
Y1769533D1*
X2595203Y1776718D1*
X2592827Y1781471D1*
X2588018Y1786280D1*
X2580833Y1788656D1*
X2564086D1*
X2646512Y1781471D2*
X2641759Y1786280D1*
X2634574Y1788656D1*
X2625012D1*
X2617827Y1786280D1*
X2613019Y1781471D1*
Y1776718D1*
X2615451Y1771909D1*
X2617827Y1769533D1*
X2622581Y1767156D1*
X2636951Y1762348D1*
X2641759Y1759971D1*
X2644136Y1757539D1*
X2646512Y1752786D1*
Y1745601D1*
X2641759Y1740848D1*
X2634574Y1738416D1*
X2625012D1*
X2617827Y1740848D1*
X2613019Y1745601D1*
X2661952Y1779039D2*
X2666760Y1781471D1*
X2673945Y1788601D1*
Y1738416D1*
X1259339Y692038D2*
Y653792D1*
X1256962Y646606D1*
X1254530Y644230D1*
X1249777Y641798D1*
X1244969D1*
X1240215Y644230D1*
X1237839Y646606D1*
X1235407Y653792D1*
Y658545D1*
X1274778Y682421D2*
X1279586Y684853D1*
X1286771Y691983D1*
Y641798D1*
X336141Y1489581D2*
Y1451335D1*
X333765Y1444150D1*
X331333Y1441773D1*
X326580Y1439341D1*
X321771D1*
X317018Y1441773D1*
X314641Y1444150D1*
X312210Y1451335D1*
Y1456088D1*
X354012Y1477588D2*
Y1479964D1*
X356389Y1484773D1*
X358766Y1487149D1*
X363574Y1489526D1*
X373136D1*
X377889Y1487149D1*
X380265Y1484773D1*
X382697Y1479964D1*
Y1475211D1*
X380265Y1470403D1*
X375512Y1463273D1*
X351581Y1439341D1*
X385074D1*
X3638700Y1590675D2*
Y1552428D1*
X3636324Y1545243D1*
X3633892Y1542866D1*
X3629139Y1540435D1*
X3624330D1*
X3619577Y1542866D1*
X3617201Y1545243D1*
X3614769Y1552428D1*
Y1557181D1*
X3658948Y1590619D2*
X3685201D1*
X3670886Y1571496D1*
X3678071D1*
X3682824Y1569119D1*
X3685201Y1566743D1*
X3687633Y1559558D1*
Y1554805D1*
X3685201Y1547620D1*
X3680448Y1542811D1*
X3673263Y1540435D1*
X3666078D1*
X3658948Y1542811D1*
X3656571Y1545243D1*
X3654140Y1549996D1*
X3637512Y1196875D2*
Y1158629D1*
X3635135Y1151444D1*
X3632704Y1149067D1*
X3627950Y1146635D1*
X3623142D1*
X3618389Y1149067D1*
X3616012Y1151444D1*
X3613580Y1158629D1*
Y1163382D1*
X3676883Y1146635D2*
Y1196820D1*
X3652951Y1163382D1*
X3688821D1*
X1990197Y1113651D2*
Y1135151D1*
X1987765Y1142336D1*
X1985388Y1144768D1*
X1980635Y1147145D1*
X1975827D1*
X1971074Y1144768D1*
X1968642Y1142336D1*
X1966265Y1135151D1*
Y1113651D1*
X2016505D1*
X1990197Y1130398D2*
X2016505Y1147145D1*
X1975882Y1162584D2*
X1973450Y1167392D1*
X1966320Y1174577D1*
X2016505D1*
X2152697Y1102704D2*
Y1124204D1*
X2150265Y1131389D1*
X2147888Y1133821D1*
X2143135Y1136198D1*
X2138327D1*
X2133574Y1133821D1*
X2131142Y1131389D1*
X2128765Y1124204D1*
Y1102704D1*
X2179005D1*
X2152697Y1119451D2*
X2179005Y1136198D1*
X2140759Y1154069D2*
X2138382D1*
X2133574Y1156445D1*
X2131197Y1158822D1*
X2128820Y1163631D1*
Y1173192D1*
X2131197Y1177945D1*
X2133574Y1180322D1*
X2138382Y1182754D1*
X2143135D1*
X2147944Y1180322D1*
X2155073Y1175569D1*
X2179005Y1151637D1*
Y1185130D1*
X1990197Y915204D2*
Y936704D1*
X1987765Y943889D1*
X1985388Y946321D1*
X1980635Y948698D1*
X1975827D1*
X1971074Y946321D1*
X1968642Y943889D1*
X1966265Y936704D1*
Y915204D1*
X2016505D1*
X1990197Y931951D2*
X2016505Y948698D1*
X1966320Y968945D2*
Y995198D1*
X1985444Y980884D1*
Y988069D1*
X1987820Y992822D1*
X1990197Y995198D1*
X1997382Y997630D1*
X2002135D1*
X2009320Y995198D1*
X2014129Y990445D1*
X2016505Y983260D1*
Y976075D1*
X2014129Y968945D1*
X2011697Y966569D1*
X2006944Y964137D1*
X2152697Y914016D2*
Y935516D1*
X2150265Y942701D1*
X2147888Y945133D1*
X2143135Y947510D1*
X2138327D1*
X2133574Y945133D1*
X2131142Y942701D1*
X2128765Y935516D1*
Y914016D1*
X2179005D1*
X2152697Y930763D2*
X2179005Y947509D1*
Y986880D2*
X2128820D1*
X2162259Y962949D1*
X2162258Y998819D1*
X1990197Y702901D2*
Y724401D1*
X1987765Y731586D1*
X1985388Y734018D1*
X1980635Y736395D1*
X1975827D1*
X1971074Y734018D1*
X1968642Y731586D1*
X1966265Y724401D1*
Y702901D1*
X2016505D1*
X1990197Y719648D2*
X2016505Y736395D1*
X1966320Y780519D2*
Y756642D1*
X1987820Y754266D1*
X1985444Y756642D1*
X1983012Y763827D1*
Y770957D1*
X1985444Y778142D1*
X1990197Y782951D1*
X1997382Y785327D1*
X2002135D1*
X2009320Y782951D1*
X2014129Y778142D1*
X2016505Y770957D1*
Y763827D1*
X2014129Y756642D1*
X2011697Y754266D1*
X2006944Y751834D1*
X2152697Y704117D2*
Y725617D1*
X2150265Y732802D1*
X2147888Y735234D1*
X2143135Y737611D1*
X2138327D1*
X2133574Y735234D1*
X2131142Y732802D1*
X2128765Y725617D1*
Y704117D1*
X2179005D1*
X2152697Y720864D2*
X2179005Y737611D1*
X2135950Y781735D2*
X2131197Y779358D1*
X2128820Y772173D1*
Y767420D1*
X2131197Y760235D1*
X2138382Y755426D1*
X2150320Y753050D1*
X2162259D1*
X2171820Y755426D1*
X2176629Y760235D1*
X2179005Y767420D1*
Y769796D1*
X2176629Y776926D1*
X2171820Y781735D1*
X2164635Y784111D1*
X2162258D1*
X2155073Y781735D1*
X2150320Y776926D1*
X2147944Y769796D1*
Y767420D1*
X2150320Y760235D1*
X2155073Y755426D1*
X2162259Y753050D1*
X2815197Y815204D2*
Y836704D1*
X2812765Y843889D1*
X2810388Y846321D1*
X2805635Y848698D1*
X2800827D1*
X2796074Y846321D1*
X2793642Y843889D1*
X2791265Y836704D1*
Y815204D1*
X2841505D1*
X2815197Y831951D2*
X2841505Y848698D1*
Y873699D2*
X2791320Y897630D1*
Y864137D1*
X2965197Y815232D2*
Y836732D1*
X2962765Y843917D1*
X2960388Y846349D1*
X2955635Y848725D1*
X2950827D1*
X2946074Y846349D1*
X2943642Y843917D1*
X2941265Y836732D1*
Y815232D1*
X2991505D1*
X2965197Y831979D2*
X2991505Y848725D1*
X2941320Y876103D2*
X2943697Y868973D1*
X2948450Y866541D1*
X2953259D1*
X2958012Y868973D1*
X2960444Y873726D1*
X2962820Y883288D1*
X2965197Y890473D1*
X2970005Y895226D1*
X2974758Y897603D1*
X2981944D1*
X2986697Y895226D1*
X2989129Y892849D1*
X2991505Y885664D1*
Y876103D1*
X2989129Y868973D1*
X2986697Y866541D1*
X2981944Y864165D1*
X2974759D1*
X2970005Y866541D1*
X2965197Y871350D1*
X2962820Y878479D1*
X2960444Y888041D1*
X2958012Y892850D1*
X2953259Y895226D1*
X2948450D1*
X2943697Y892850D1*
X2941320Y885664D1*
Y876103D1*
X3115197Y816393D2*
Y837893D1*
X3112765Y845078D1*
X3110388Y847509D1*
X3105635Y849886D1*
X3100827D1*
X3096074Y847510D1*
X3093642Y845078D1*
X3091265Y837893D1*
Y816393D1*
X3141505D1*
X3115197Y833139D2*
X3141505Y849886D1*
X3108012Y896442D2*
X3115197Y894010D1*
X3120005Y889257D1*
X3122382Y882072D1*
Y879695D1*
X3120005Y872510D1*
X3115197Y867757D1*
X3108012Y865325D1*
X3105635D1*
X3098450Y867757D1*
X3093697Y872510D1*
X3091320Y879695D1*
Y882072D1*
X3093697Y889257D1*
X3098450Y894010D1*
X3108012Y896442D1*
X3120005D1*
X3131944Y894010D1*
X3139129Y889257D1*
X3141505Y882072D1*
Y877319D1*
X3139129Y870134D1*
X3134320Y867757D1*
X3277697Y801488D2*
Y822988D1*
X3275265Y830173D1*
X3272888Y832605D1*
X3268135Y834981D1*
X3263327D1*
X3258574Y832605D1*
X3256142Y830173D1*
X3253765Y822988D1*
Y801488D1*
X3304005D1*
X3277697Y818235D2*
X3304005Y834981D1*
X3263382Y850421D2*
X3260950Y855229D1*
X3253820Y862414D1*
X3304005D1*
X3253820Y892223D2*
X3256197Y885038D1*
X3263382Y880230D1*
X3275320Y877853D1*
X3282505D1*
X3294444Y880230D1*
X3301629Y885038D1*
X3304005Y892223D1*
Y896977D1*
X3301629Y904162D1*
X3294444Y908915D1*
X3282505Y911347D1*
X3275320D1*
X3263382Y908915D1*
X3256197Y904162D1*
X3253820Y896977D1*
Y892223D1*
X3263382Y908915D2*
X3294444Y880230D1*
X2559546Y936924D2*
X2554793Y941732D1*
X2547608Y944109D1*
X2538046D1*
X2530861Y941732D1*
X2526053Y936924D1*
Y932171D1*
X2528485Y927362D1*
X2530861Y924986D1*
X2535614Y922609D1*
X2549984Y917801D1*
X2554793Y915424D1*
X2557169Y912992D1*
X2559546Y908239D1*
Y901054D1*
X2554793Y896301D1*
X2547608Y893869D1*
X2538046D1*
X2530861Y896301D1*
X2526053Y901054D1*
X2574985Y934492D2*
X2579794Y936924D1*
X2586979Y944054D1*
Y893869D1*
X1666407Y1364173D2*
Y1328303D1*
X1668784Y1321118D1*
X1673592Y1316365D1*
X1680777Y1313933D1*
X1685530D1*
X1692715Y1316365D1*
X1697524Y1321118D1*
X1699900Y1328303D1*
Y1364173D1*
X1715340Y1354556D2*
X1720148Y1356988D1*
X1727333Y1364118D1*
Y1313933D1*
X1365303Y1019207D2*
Y983337D1*
X1367679Y976152D1*
X1372488Y971399D1*
X1379673Y968967D1*
X1384426D1*
X1391611Y971399D1*
X1396420Y976152D1*
X1398796Y983337D1*
Y1019207D1*
X1416667Y1007214D2*
Y1009590D1*
X1419044Y1014399D1*
X1421420Y1016775D1*
X1426229Y1019152D1*
X1435790D1*
X1440544Y1016775D1*
X1442920Y1014399D1*
X1445352Y1009590D1*
Y1004837D1*
X1442920Y1000029D1*
X1438167Y992899D1*
X1414235Y968967D1*
X1447729D1*
X2952803Y743913D2*
Y708043D1*
X2955179Y700858D1*
X2959988Y696105D1*
X2967173Y693673D1*
X2971926D1*
X2979111Y696105D1*
X2983920Y700858D1*
X2986296Y708043D1*
Y743913D1*
X3006544Y743857D2*
X3032797D1*
X3018482Y724734D1*
X3025667D1*
X3030420Y722358D1*
X3032797Y719981D1*
X3035229Y712796D1*
Y708043D1*
X3032797Y700858D1*
X3028044Y696049D1*
X3020859Y693673D1*
X3013674D1*
X3006544Y696049D1*
X3004167Y698481D1*
X3001735Y703234D1*
X973957Y1390172D2*
Y1354302D1*
X976334Y1347117D1*
X981142Y1342364D1*
X988327Y1339932D1*
X993080D1*
X1000265Y1342364D1*
X1005074Y1347117D1*
X1007450Y1354302D1*
Y1390172D1*
X1046821Y1339932D2*
Y1390117D1*
X1022890Y1356679D1*
X1058760D1*
X2096504Y1789073D2*
Y1753204D1*
X2098880Y1746019D1*
X2103689Y1741265D1*
X2110874Y1738833D1*
X2115627D1*
X2122812Y1741265D1*
X2127620Y1746019D1*
X2129997Y1753204D1*
Y1789073D1*
X2174121Y1789018D2*
X2150245D1*
X2147868Y1767518D1*
X2150245Y1769895D1*
X2157430Y1772327D1*
X2164559D1*
X2171744Y1769895D1*
X2176553Y1765142D1*
X2178929Y1757957D1*
Y1753204D1*
X2176553Y1746019D1*
X2171744Y1741210D1*
X2164559Y1738833D1*
X2157430D1*
X2150245Y1741210D1*
X2147868Y1743642D1*
X2145436Y1748395D1*
X2997154Y1367980D2*
Y1332110D1*
X2999530Y1324925D1*
X3004339Y1320172D1*
X3011524Y1317740D1*
X3016277D1*
X3023462Y1320172D1*
X3028271Y1324925D1*
X3030647Y1332110D1*
Y1367980D1*
X3074771Y1360795D2*
X3072395Y1365548D1*
X3065210Y1367925D1*
X3060457D1*
X3053272Y1365548D1*
X3048463Y1358363D1*
X3046086Y1346425D1*
Y1334487D1*
X3048463Y1324925D1*
X3053272Y1320117D1*
X3060457Y1317740D1*
X3062833D1*
X3069963Y1320117D1*
X3074771Y1324925D1*
X3077148Y1332110D1*
Y1334487D1*
X3074771Y1341672D1*
X3069963Y1346425D1*
X3062833Y1348802D1*
X3060457D1*
X3053272Y1346425D1*
X3048463Y1341672D1*
X3046086Y1334487D1*
X2990303Y1731707D2*
Y1695837D1*
X2992679Y1688652D1*
X2997488Y1683899D1*
X3004673Y1681467D1*
X3009426D1*
X3016611Y1683899D1*
X3021420Y1688652D1*
X3023796Y1695837D1*
Y1731707D1*
X3048797Y1681467D2*
X3072729Y1731652D1*
X3039235D1*
X1063676Y1674745D2*
X1082799Y1650813D1*
Y1624505D1*
X1101923Y1674745D2*
X1082799Y1650813D1*
X1117362Y1665128D2*
X1122170Y1667560D1*
X1129355Y1674689D1*
Y1624505D1*
X1764494Y546388D2*
X1785994D1*
X1793179Y548820D1*
X1795610Y551196D1*
X1797987Y555949D1*
Y560758D1*
X1795610Y565511D1*
X1793179Y567943D1*
X1785994Y570320D1*
X1764494D1*
Y520080D1*
X1781240Y546388D2*
X1797987Y520080D1*
X1844488Y570320D2*
X1813426D1*
Y520080D1*
X1844488D1*
X1813426Y546388D2*
X1832550D1*
X1893420Y563134D2*
X1888667Y567943D1*
X1881482Y570320D1*
X1871920D1*
X1864735Y567943D1*
X1859927Y563134D1*
Y558381D1*
X1862359Y553573D1*
X1864735Y551196D1*
X1869489Y548820D1*
X1883859Y544011D1*
X1888667Y541635D1*
X1891044Y539203D1*
X1893420Y534450D1*
Y527265D1*
X1888667Y522511D1*
X1881482Y520080D1*
X1871920D1*
X1864735Y522511D1*
X1859927Y527265D1*
X1957461Y570320D2*
X1969454Y520080D1*
X1981392Y570320D1*
X1993330Y520080D1*
X2005324Y570320D1*
X2020763D2*
Y520080D1*
X2054257Y570320D2*
X2020763Y536826D1*
X2032701Y548820D2*
X2054257Y520080D1*
X2118297Y570320D2*
Y520080D1*
X2139852D1*
X2147037Y522511D1*
X2149413Y524888D1*
X2151790Y529641D1*
Y536826D1*
X2149413Y541635D1*
X2147037Y544011D1*
X2139852Y546388D1*
X2147037Y548820D1*
X2149413Y551196D1*
X2151790Y555949D1*
Y560758D1*
X2149413Y565511D1*
X2147037Y567943D1*
X2139852Y570320D1*
X2118297D1*
Y546388D2*
X2139852D1*
X2181599Y570320D2*
X2176791Y567943D1*
X2172038Y563134D1*
X2169606Y558381D1*
X2167229Y551196D1*
Y539203D1*
X2169606Y532073D1*
X2172038Y527265D1*
X2176791Y522511D1*
X2181599Y520080D1*
X2191161D1*
X2195914Y522511D1*
X2200723Y527265D1*
X2203099Y532073D1*
X2205476Y539203D1*
Y551196D1*
X2203099Y558381D1*
X2200723Y563134D1*
X2195914Y567943D1*
X2191161Y570320D1*
X2181599D1*
X2235285D2*
X2230477Y567943D1*
X2225724Y563134D1*
X2223292Y558381D1*
X2220915Y551196D1*
Y539203D1*
X2223292Y532073D1*
X2225724Y527265D1*
X2230477Y522511D1*
X2235285Y520080D1*
X2244847D1*
X2249600Y522511D1*
X2254408Y527265D1*
X2256785Y532073D1*
X2259162Y539203D1*
Y551196D1*
X2256785Y558381D1*
X2254408Y563134D1*
X2249600Y567943D1*
X2244847Y570320D1*
X2235285D1*
X2291348D2*
Y520080D1*
X2274601Y570320D2*
X2308094D1*
X3972268Y828732D2*
D104*
X3969416Y834436D1*
X3963646Y840206D1*
X3957942Y843058D1*
X3946468D1*
X3940698Y840206D1*
X3934994Y834436D1*
X3932076Y828732D1*
X3929224Y820110D1*
Y805718D1*
X3932076Y797162D1*
X3934994Y791392D1*
X3940698Y785688D1*
X3946468Y782770D1*
X3957942D1*
X3963646Y785688D1*
X3969416Y791392D1*
X3972268Y797162D1*
Y805718D1*
X3957942D1*
X3923588Y1034659D2*
Y974371D1*
X3949455D1*
X3958077Y977289D1*
X3960929Y980141D1*
X3963780Y985845D1*
Y994467D1*
X3960929Y1000237D1*
X3958077Y1003089D1*
X3949455Y1005941D1*
X3958077Y1008859D1*
X3960929Y1011711D1*
X3963780Y1017415D1*
Y1023185D1*
X3960929Y1028889D1*
X3958077Y1031807D1*
X3949455Y1034659D1*
X3923588D1*
Y1005941D2*
X3949455D1*
X3969551Y1182877D2*
X3946536Y1243165D1*
X3923588Y1182877D1*
X3932211Y1202973D2*
X3960929D1*
X3912928Y1440334D2*
X3884276D1*
X3881424Y1414534D1*
X3884276Y1417386D1*
X3892898Y1420304D1*
X3901454D1*
X3910076Y1417386D1*
X3915846Y1411682D1*
X3918698Y1403060D1*
Y1397356D1*
X3915846Y1388734D1*
X3910076Y1382964D1*
X3901454Y1380112D1*
X3892898D1*
X3884276Y1382964D1*
X3881424Y1385882D1*
X3878506Y1391586D1*
X3937225Y1440400D2*
X3960173Y1380112D1*
X3983121Y1440400D1*
X4059969D2*
Y1380112D1*
X4118688Y1440400D2*
Y1380112D1*
X4078496Y1440400D1*
Y1380112D1*
X3189132Y615039D2*
D105*
X3265625Y571929D1*
X3189132Y528929D1*
X3296503Y505219D2*
X3387366D1*
M02*
