%TF.GenerationSoftware,Novarm,DipTrace,3.0.0.2*%
%TF.CreationDate,2017-02-07T17:04:18+02:00*%
%FSLAX26Y26*%
%MOIN*%
%TF.FileFunction,Legend,Top*%
%TF.Part,Single*%
%ADD10C,0.009843*%
%ADD14C,0.02*%
%ADD15O,0.039447X0.045082*%
%ADD19C,0.023606*%
%ADD21C,0.023613*%
%ADD25C,0.015768*%
%ADD37C,0.015408*%
%ADD44O,0.02577X0.025955*%
%ADD103C,0.00772*%
%ADD104C,0.009264*%
%ADD105C,0.015439*%
G75*
G01*
%LPD*%
X677640Y1255929D2*
D10*
Y1307071D1*
Y1093429D2*
Y1144571D1*
X1240140Y1255929D2*
Y1307071D1*
Y1105929D2*
Y1157071D1*
X1907860Y923921D2*
X1907893Y843214D1*
X1907860Y923921D2*
X1691355D1*
X1648061Y880606D2*
X1691355Y923921D1*
X1648061Y880606D2*
Y843214D1*
X1907893Y744786D2*
X1907860Y664079D1*
X1691355D1*
X1648061Y707394D2*
X1691355Y664079D1*
X1648061Y744786D2*
Y707394D1*
D19*
X1624406Y851074D3*
X1882860Y1661421D2*
D10*
X1882893Y1580714D1*
X1882860Y1661421D2*
X1666355D1*
X1623061Y1618106D2*
X1666355Y1661421D1*
X1623061Y1618106D2*
Y1580714D1*
X1882893Y1482286D2*
X1882860Y1401579D1*
X1666355D1*
X1623061Y1444894D2*
X1666355Y1401579D1*
X1623061Y1482286D2*
Y1444894D1*
D19*
X1599406Y1588574D3*
X677640Y943429D2*
D10*
Y994571D1*
X890140Y868429D2*
Y919571D1*
X677640Y793429D2*
Y844571D1*
X1115140Y868429D2*
Y919571D1*
X777640Y1668429D2*
Y1719571D1*
X1265140Y1668429D2*
Y1719571D1*
X952369Y695972D2*
Y518800D1*
X810633Y695972D2*
Y518800D1*
X952369D2*
X942519D1*
X952369Y695972D2*
X942519D1*
X820484Y518800D2*
X810633D1*
X820484Y695972D2*
X810633D1*
D21*
X881501Y767814D3*
X3352369Y1570972D2*
D10*
Y1393800D1*
X3210633Y1570972D2*
Y1393800D1*
X3352369D2*
X3342519D1*
X3352369Y1570972D2*
X3342519D1*
X3220484Y1393800D2*
X3210633D1*
X3220484Y1570972D2*
X3210633D1*
D21*
X3281501Y1642814D3*
X2865949Y972583D2*
D10*
Y1715417D1*
X2372051D2*
X2865949D1*
X2372051D2*
Y972583D1*
X2865949D2*
X2372051D1*
D25*
X1209890Y610915D3*
X1111475Y511311D2*
D10*
Y501860D1*
Y416030D2*
Y351082D1*
X1410672D1*
Y416030D1*
Y511311D2*
Y501860D1*
X133862Y796657D2*
X468507D1*
Y1416343D1*
X133862D1*
Y796657D1*
X3474020Y1517436D2*
Y1100113D1*
X3828350D1*
Y1517436D1*
X3474020D1*
G36*
X3508744Y1410977D2*
X3477244D1*
Y1379594D1*
X3508744D1*
Y1410977D1*
G37*
G36*
Y1214251D2*
X3477244D1*
Y1182826D1*
X3508744D1*
Y1214251D1*
G37*
X3474020Y1123636D2*
D10*
Y706314D1*
X3828350D1*
Y1123636D1*
X3474020D1*
G36*
X3508744Y1017177D2*
X3477244D1*
Y985795D1*
X3508744D1*
Y1017177D1*
G37*
G36*
Y820451D2*
X3477244D1*
Y789027D1*
X3508744D1*
Y820451D1*
G37*
X2367524Y520068D2*
D10*
Y842922D1*
X2399007D1*
X2367524Y520068D2*
X2402976D1*
X2745476D2*
Y842922D1*
X2717924D1*
X2745476Y520068D2*
X2717924D1*
G36*
X2435139Y436224D2*
X2482383D1*
Y471648D1*
X2435139D1*
Y436224D1*
G37*
G36*
X2533596D2*
X2580840D1*
Y471648D1*
X2533596D1*
Y436224D1*
G37*
G36*
X2632015D2*
X2679259D1*
Y471648D1*
X2632015D1*
Y436224D1*
G37*
X1602387Y1284162D2*
D10*
Y1024320D1*
X1877976Y1284162D2*
X1602387D1*
X1877976D2*
Y1276297D1*
Y1024320D2*
X1602387D1*
X1877976D2*
Y1032185D1*
D37*
X1487441Y1283229D3*
X1308073Y749111D2*
D10*
X1504927D1*
X1308073Y851487D2*
X1504927D1*
Y749111D2*
Y851487D1*
X1308073Y780605D2*
Y749111D1*
Y819994D2*
Y851487D1*
Y780605D2*
G03X1308073Y819994I-9J19694D01*
G01*
X2918380Y503358D2*
G02X3069620Y503358I75620J66569D01*
G01*
X2918380D1*
X1146272Y1230309D2*
X886413D1*
X1146272Y1104337D2*
X886413D1*
Y1230309D2*
Y1104337D1*
X1146272Y1230309D2*
Y1187012D1*
Y1147634D2*
Y1104337D1*
Y1187012D2*
G03X1146272Y1147634I-9J-19689D01*
G01*
X2188889Y1322165D2*
Y1715835D1*
X2086513Y1322165D2*
Y1715835D1*
X2188889D2*
X2086513D1*
X2188889Y1322165D2*
X2157395D1*
X2118006D2*
X2086513D1*
X2157395D2*
G03X2118006Y1322165I-19694J-11D01*
G01*
X2882355Y1283847D2*
X3079209D1*
X2882355Y1386223D2*
X3079209D1*
Y1283847D2*
Y1386223D1*
X2882355Y1315341D2*
Y1283847D1*
Y1354730D2*
Y1386223D1*
Y1315341D2*
G03X2882355Y1354730I-9J19694D01*
G01*
X2933073Y1461611D2*
X3129927D1*
X2933073Y1563987D2*
X3129927D1*
Y1461611D2*
Y1563987D1*
X2933073Y1493105D2*
Y1461611D1*
Y1532494D2*
Y1563987D1*
Y1493105D2*
G03X2933073Y1532494I-9J19694D01*
G01*
X895348Y1551477D2*
G02X961444Y1586514I66245J-45106D01*
G01*
X871487Y1551477D2*
Y1591493D1*
X1231496Y1586514D2*
G02X1297652Y1551477I-89J-80143D01*
G01*
X1321513D2*
Y1591493D1*
X1231496Y1456493D2*
X961444D1*
X1231496Y1426491D2*
X961444D1*
Y1556512D2*
X1231496D1*
X1311491Y1411499D2*
X881509D1*
X1311491D2*
G03X1321513Y1421475I37J9985D01*
G01*
Y1461509D1*
X1231496Y1456493D2*
G03X1253329Y1461509I3J50012D01*
G01*
X1231496Y1556512D2*
G02X1253329Y1551477I-123J-50388D01*
G01*
X1231496Y1426491D2*
G03X1297652Y1461509I-33J80061D01*
G01*
X895348D2*
G03X961444Y1426491I66189J45043D01*
G01*
X939671Y1461509D2*
G03X961444Y1456493I21831J44996D01*
G01*
X939671Y1551477D2*
G02X961444Y1556512I21958J-45356D01*
G01*
X871487Y1421475D2*
Y1461509D1*
Y1421475D2*
G03X881509Y1411499I9985J10D01*
G01*
X961444Y1586514D2*
X1231496D1*
X1311491Y1601506D2*
X881509D1*
X1311491D2*
G02X1321513Y1591493I4J-10017D01*
G01*
X871487D2*
G02X881509Y1601506I10017J-4D01*
G01*
X1086538Y1531489D2*
Y1481498D1*
X1106462D1*
Y1531489D1*
X1086538D1*
X1071505D2*
Y1506484D1*
Y1481498D1*
Y1506484D2*
X1056472D1*
X1121495Y1531489D2*
Y1506484D1*
Y1481498D1*
Y1506484D2*
X1136528D1*
D44*
X819827Y1574601D3*
X3143061Y717413D2*
D14*
X3421690D1*
Y448657D1*
X3143061D1*
Y717413D1*
D15*
X520116Y731696D3*
X752736Y1372312D2*
D103*
X750359Y1377066D1*
X745551Y1381874D1*
X740797Y1384251D1*
X731236D1*
X726427Y1381874D1*
X721674Y1377066D1*
X719242Y1372312D1*
X716866Y1365127D1*
Y1353134D1*
X719242Y1346004D1*
X721674Y1341196D1*
X726427Y1336442D1*
X731236Y1334011D1*
X740797D1*
X745551Y1336442D1*
X750359Y1341196D1*
X752736Y1346004D1*
X768175Y1374634D2*
X772983Y1377066D1*
X780168Y1384195D1*
Y1334011D1*
X741986Y1209812D2*
X739609Y1214566D1*
X734801Y1219374D1*
X730048Y1221751D1*
X720486D1*
X715677Y1219374D1*
X710924Y1214566D1*
X708492Y1209812D1*
X706116Y1202627D1*
Y1190634D1*
X708492Y1183504D1*
X710924Y1178696D1*
X715677Y1173942D1*
X720486Y1171511D1*
X730048D1*
X734801Y1173942D1*
X739609Y1178696D1*
X741986Y1183504D1*
X759857Y1209757D2*
Y1212134D1*
X762233Y1216942D1*
X764610Y1219319D1*
X769418Y1221695D1*
X778980D1*
X783733Y1219319D1*
X786110Y1216942D1*
X788542Y1212134D1*
Y1207381D1*
X786110Y1202572D1*
X781357Y1195442D1*
X757425Y1171511D1*
X790918D1*
X1304486Y1372312D2*
X1302109Y1377066D1*
X1297301Y1381874D1*
X1292548Y1384251D1*
X1282986D1*
X1278177Y1381874D1*
X1273424Y1377066D1*
X1270992Y1372312D1*
X1268616Y1365127D1*
Y1353134D1*
X1270992Y1346004D1*
X1273424Y1341196D1*
X1278177Y1336442D1*
X1282986Y1334011D1*
X1292548D1*
X1297301Y1336442D1*
X1302109Y1341196D1*
X1304486Y1346004D1*
X1324733Y1384195D2*
X1350986D1*
X1336672Y1365072D1*
X1343857D1*
X1348610Y1362696D1*
X1350986Y1360319D1*
X1353418Y1353134D1*
Y1348381D1*
X1350986Y1341196D1*
X1346233Y1336387D1*
X1339048Y1334011D1*
X1331863D1*
X1324733Y1336387D1*
X1322357Y1338819D1*
X1319925Y1343572D1*
X1303297Y1222312D2*
X1300921Y1227066D1*
X1296112Y1231874D1*
X1291359Y1234251D1*
X1281798D1*
X1276989Y1231874D1*
X1272236Y1227066D1*
X1269804Y1222312D1*
X1267428Y1215127D1*
Y1203134D1*
X1269804Y1196004D1*
X1272236Y1191196D1*
X1276989Y1186442D1*
X1281798Y1184011D1*
X1291359D1*
X1296112Y1186442D1*
X1300921Y1191196D1*
X1303297Y1196004D1*
X1342668Y1184011D2*
Y1234195D1*
X1318737Y1200757D1*
X1354607D1*
X1767980Y985206D2*
X1765604Y989959D1*
X1760795Y994768D1*
X1756042Y997144D1*
X1746481D1*
X1741672Y994768D1*
X1736919Y989959D1*
X1734487Y985206D1*
X1732111Y978021D1*
Y966028D1*
X1734487Y958898D1*
X1736919Y954089D1*
X1741672Y949336D1*
X1746481Y946904D1*
X1756042D1*
X1760795Y949336D1*
X1765604Y954089D1*
X1767980Y958898D1*
X1812105Y997089D2*
X1788228D1*
X1785852Y975589D1*
X1788228Y977966D1*
X1795413Y980398D1*
X1802543D1*
X1809728Y977966D1*
X1814536Y973213D1*
X1816913Y966028D1*
Y961274D1*
X1814536Y954089D1*
X1809728Y949281D1*
X1802543Y946904D1*
X1795413D1*
X1788228Y949281D1*
X1785852Y951713D1*
X1783420Y956466D1*
X1744196Y1722706D2*
X1741820Y1727459D1*
X1737011Y1732268D1*
X1732258Y1734644D1*
X1722697D1*
X1717888Y1732268D1*
X1713135Y1727459D1*
X1710703Y1722706D1*
X1708326Y1715521D1*
Y1703528D1*
X1710703Y1696398D1*
X1713135Y1691589D1*
X1717888Y1686836D1*
X1722697Y1684404D1*
X1732258D1*
X1737011Y1686836D1*
X1741820Y1691589D1*
X1744196Y1696398D1*
X1788321Y1727459D2*
X1785944Y1732212D1*
X1778759Y1734589D1*
X1774006D1*
X1766821Y1732212D1*
X1762012Y1725027D1*
X1759636Y1713089D1*
Y1701151D1*
X1762012Y1691589D1*
X1766821Y1686781D1*
X1774006Y1684404D1*
X1776382D1*
X1783512Y1686781D1*
X1788321Y1691589D1*
X1790697Y1698774D1*
Y1701151D1*
X1788321Y1708336D1*
X1783512Y1713089D1*
X1776382Y1715466D1*
X1774006D1*
X1766821Y1713089D1*
X1762012Y1708336D1*
X1759636Y1701151D1*
X741986Y1059812D2*
X739609Y1064566D1*
X734801Y1069374D1*
X730048Y1071751D1*
X720486D1*
X715677Y1069374D1*
X710924Y1064566D1*
X708492Y1059812D1*
X706116Y1052627D1*
Y1040634D1*
X708492Y1033504D1*
X710924Y1028696D1*
X715677Y1023942D1*
X720486Y1021511D1*
X730048D1*
X734801Y1023942D1*
X739609Y1028696D1*
X741986Y1033504D1*
X766987Y1021511D2*
X790918Y1071695D1*
X757425D1*
X954513Y984812D2*
X952137Y989566D1*
X947328Y994374D1*
X942575Y996751D1*
X933014D1*
X928205Y994374D1*
X923452Y989566D1*
X921020Y984812D1*
X918643Y977627D1*
Y965634D1*
X921020Y958504D1*
X923452Y953696D1*
X928205Y948942D1*
X933014Y946511D1*
X942575D1*
X947328Y948942D1*
X952137Y953696D1*
X954513Y958504D1*
X981891Y996695D2*
X974761Y994319D1*
X972329Y989566D1*
Y984757D1*
X974761Y980004D1*
X979514Y977572D1*
X989076Y975196D1*
X996261Y972819D1*
X1001014Y968010D1*
X1003391Y963257D1*
Y956072D1*
X1001014Y951319D1*
X998638Y948887D1*
X991452Y946511D1*
X981891D1*
X974761Y948887D1*
X972329Y951319D1*
X969953Y956072D1*
Y963257D1*
X972329Y968010D1*
X977138Y972819D1*
X984267Y975196D1*
X993829Y977572D1*
X998638Y980004D1*
X1001014Y984757D1*
Y989566D1*
X998638Y994319D1*
X991452Y996695D1*
X981891D1*
X743174Y909812D2*
X740797Y914566D1*
X735989Y919374D1*
X731236Y921751D1*
X721674D1*
X716866Y919374D1*
X712113Y914566D1*
X709681Y909812D1*
X707304Y902627D1*
Y890634D1*
X709681Y883504D1*
X712113Y878696D1*
X716866Y873942D1*
X721674Y871511D1*
X731236D1*
X735989Y873942D1*
X740797Y878696D1*
X743174Y883504D1*
X789730Y905004D2*
X787298Y897819D1*
X782545Y893010D1*
X775360Y890634D1*
X772983D1*
X765798Y893010D1*
X761045Y897819D1*
X758613Y905004D1*
Y907381D1*
X761045Y914566D1*
X765798Y919319D1*
X772983Y921695D1*
X775360D1*
X782545Y919319D1*
X787298Y914566D1*
X789730Y905004D1*
Y893010D1*
X787298Y881072D1*
X782545Y873887D1*
X775360Y871511D1*
X770607D1*
X763422Y873887D1*
X761045Y878696D1*
X1165769Y984812D2*
X1163393Y989566D1*
X1158584Y994374D1*
X1153831Y996751D1*
X1144270D1*
X1139461Y994374D1*
X1134708Y989566D1*
X1132276Y984812D1*
X1129899Y977627D1*
Y965634D1*
X1132276Y958504D1*
X1134708Y953696D1*
X1139461Y948942D1*
X1144270Y946511D1*
X1153831D1*
X1158584Y948942D1*
X1163393Y953696D1*
X1165769Y958504D1*
X1181209Y987134D2*
X1186017Y989566D1*
X1193202Y996695D1*
Y946511D1*
X1223011Y996695D2*
X1215826Y994319D1*
X1211018Y987134D1*
X1208641Y975196D1*
Y968010D1*
X1211018Y956072D1*
X1215826Y948887D1*
X1223011Y946511D1*
X1227765D1*
X1234950Y948887D1*
X1239703Y956072D1*
X1242135Y968010D1*
Y975196D1*
X1239703Y987134D1*
X1234950Y994319D1*
X1227765Y996695D1*
X1223011D1*
X1239703Y987134D2*
X1211018Y956072D1*
X839019Y1784812D2*
X836643Y1789566D1*
X831834Y1794374D1*
X827081Y1796751D1*
X817519D1*
X812711Y1794374D1*
X807958Y1789566D1*
X805526Y1784812D1*
X803149Y1777627D1*
Y1765634D1*
X805526Y1758504D1*
X807958Y1753696D1*
X812711Y1748942D1*
X817519Y1746511D1*
X827081D1*
X831834Y1748942D1*
X836643Y1753696D1*
X839019Y1758504D1*
X854459Y1787134D2*
X859267Y1789566D1*
X866452Y1796695D1*
Y1746511D1*
X881891Y1787134D2*
X886700Y1789566D1*
X893885Y1796695D1*
Y1746511D1*
X1315769Y1784812D2*
X1313393Y1789566D1*
X1308584Y1794374D1*
X1303831Y1796751D1*
X1294270D1*
X1289461Y1794374D1*
X1284708Y1789566D1*
X1282276Y1784812D1*
X1279899Y1777627D1*
Y1765634D1*
X1282276Y1758504D1*
X1284708Y1753696D1*
X1289461Y1748942D1*
X1294270Y1746511D1*
X1303831D1*
X1308584Y1748942D1*
X1313393Y1753696D1*
X1315769Y1758504D1*
X1331209Y1787134D2*
X1336017Y1789566D1*
X1343202Y1796695D1*
Y1746511D1*
X1361073Y1784757D2*
Y1787134D1*
X1363450Y1791942D1*
X1365826Y1794319D1*
X1370635Y1796695D1*
X1380196D1*
X1384950Y1794319D1*
X1387326Y1791942D1*
X1389758Y1787134D1*
Y1782381D1*
X1387326Y1777572D1*
X1382573Y1770442D1*
X1358641Y1746511D1*
X1392135D1*
X851038Y852853D2*
Y802613D1*
X867785D1*
X874970Y805045D1*
X879778Y809798D1*
X882155Y814606D1*
X884532Y821736D1*
Y833730D1*
X882155Y840915D1*
X879778Y845668D1*
X874970Y850476D1*
X867785Y852853D1*
X851038D1*
X899971Y843236D2*
X904779Y845668D1*
X911964Y852798D1*
Y802613D1*
X3240288Y1727853D2*
Y1677613D1*
X3257035D1*
X3264220Y1680045D1*
X3269029Y1684798D1*
X3271405Y1689606D1*
X3273782Y1696736D1*
Y1708730D1*
X3271405Y1715915D1*
X3269029Y1720668D1*
X3264220Y1725476D1*
X3257035Y1727853D1*
X3240288D1*
X3291653Y1715860D2*
Y1718236D1*
X3294029Y1723045D1*
X3296406Y1725421D1*
X3301214Y1727798D1*
X3310776D1*
X3315529Y1725421D1*
X3317906Y1723045D1*
X3320338Y1718236D1*
Y1713483D1*
X3317906Y1708674D1*
X3313153Y1701545D1*
X3289221Y1677613D1*
X3322714D1*
X2564071Y1788640D2*
Y1738400D1*
X2580817D1*
X2588002Y1740832D1*
X2592811Y1745585D1*
X2595187Y1750394D1*
X2597564Y1757524D1*
Y1769517D1*
X2595187Y1776702D1*
X2592811Y1781455D1*
X2588002Y1786264D1*
X2580817Y1788640D1*
X2564071D1*
X2646497Y1781455D2*
X2641743Y1786264D1*
X2634558Y1788640D1*
X2624997D1*
X2617812Y1786264D1*
X2613003Y1781455D1*
Y1776702D1*
X2615435Y1771894D1*
X2617812Y1769517D1*
X2622565Y1767141D1*
X2636935Y1762332D1*
X2641743Y1759956D1*
X2644120Y1757524D1*
X2646497Y1752770D1*
Y1745585D1*
X2641743Y1740832D1*
X2634558Y1738400D1*
X2624997D1*
X2617812Y1740832D1*
X2613003Y1745585D1*
X2661936Y1779024D2*
X2666744Y1781455D1*
X2673929Y1788585D1*
Y1738400D1*
X1259323Y692022D2*
Y653775D1*
X1256946Y646590D1*
X1254514Y644214D1*
X1249761Y641782D1*
X1244953D1*
X1240200Y644214D1*
X1237823Y646590D1*
X1235391Y653775D1*
Y658529D1*
X1274762Y682405D2*
X1279570Y684837D1*
X1286756Y691967D1*
Y641782D1*
X336126Y1489566D2*
Y1451319D1*
X333749Y1444134D1*
X331317Y1441757D1*
X326564Y1439326D1*
X321755D1*
X317002Y1441757D1*
X314626Y1444134D1*
X312194Y1451319D1*
Y1456072D1*
X353997Y1477572D2*
Y1479949D1*
X356373Y1484757D1*
X358750Y1487134D1*
X363558Y1489510D1*
X373120D1*
X377873Y1487134D1*
X380250Y1484757D1*
X382682Y1479949D1*
Y1475196D1*
X380250Y1470387D1*
X375497Y1463257D1*
X351565Y1439326D1*
X385058D1*
X3638685Y1590659D2*
Y1552412D1*
X3636308Y1545227D1*
X3633876Y1542851D1*
X3629123Y1540419D1*
X3624315D1*
X3619561Y1542851D1*
X3617185Y1545227D1*
X3614753Y1552412D1*
Y1557165D1*
X3658932Y1590604D2*
X3685185D1*
X3670871Y1571480D1*
X3678056D1*
X3682809Y1569104D1*
X3685185Y1566727D1*
X3687617Y1559542D1*
Y1554789D1*
X3685185Y1547604D1*
X3680432Y1542795D1*
X3673247Y1540419D1*
X3666062D1*
X3658932Y1542795D1*
X3656556Y1545227D1*
X3654124Y1549980D1*
X3637496Y1196860D2*
Y1158613D1*
X3635120Y1151428D1*
X3632688Y1149051D1*
X3627935Y1146620D1*
X3623126D1*
X3618373Y1149051D1*
X3615996Y1151428D1*
X3613565Y1158613D1*
Y1163366D1*
X3676867Y1146620D2*
Y1196804D1*
X3652936Y1163366D1*
X3688805D1*
X1990181Y1113636D2*
Y1135135D1*
X1987749Y1142320D1*
X1985373Y1144752D1*
X1980620Y1147129D1*
X1975811D1*
X1971058Y1144752D1*
X1968626Y1142320D1*
X1966249Y1135135D1*
Y1113636D1*
X2016489D1*
X1990181Y1130382D2*
X2016489Y1147129D1*
X1975866Y1162568D2*
X1973434Y1167376D1*
X1966305Y1174562D1*
X2016489Y1174561D1*
X2152681Y1102689D2*
Y1124189D1*
X2150249Y1131374D1*
X2147873Y1133805D1*
X2143120Y1136182D1*
X2138311D1*
X2133558Y1133805D1*
X2131126Y1131374D1*
X2128749Y1124189D1*
Y1102689D1*
X2178989D1*
X2152681Y1119435D2*
X2178989Y1136182D1*
X2140743Y1154053D2*
X2138366D1*
X2133558Y1156430D1*
X2131181Y1158806D1*
X2128805Y1163615D1*
Y1173176D1*
X2131181Y1177930D1*
X2133558Y1180306D1*
X2138366Y1182738D1*
X2143120D1*
X2147928Y1180306D1*
X2155058Y1175553D1*
X2178989Y1151621D1*
Y1185115D1*
X1990181Y915189D2*
Y936689D1*
X1987749Y943874D1*
X1985373Y946305D1*
X1980620Y948682D1*
X1975811D1*
X1971058Y946305D1*
X1968626Y943874D1*
X1966249Y936689D1*
Y915189D1*
X2016489D1*
X1990181Y931935D2*
X2016489Y948682D1*
X1966305Y968930D2*
Y995183D1*
X1985428Y980868D1*
Y988053D1*
X1987805Y992806D1*
X1990181Y995183D1*
X1997366Y997615D1*
X2002119D1*
X2009304Y995183D1*
X2014113Y990430D1*
X2016489Y983244D1*
Y976059D1*
X2014113Y968930D1*
X2011681Y966553D1*
X2006928Y964121D1*
X2152681Y914000D2*
Y935500D1*
X2150249Y942685D1*
X2147873Y945117D1*
X2143120Y947494D1*
X2138311D1*
X2133558Y945117D1*
X2131126Y942685D1*
X2128749Y935500D1*
Y914000D1*
X2178989D1*
X2152681Y930747D2*
X2178989Y947494D1*
Y986865D2*
X2128805D1*
X2162243Y962933D1*
Y998803D1*
X1990181Y702886D2*
Y724385D1*
X1987749Y731570D1*
X1985373Y734002D1*
X1980620Y736379D1*
X1975811D1*
X1971058Y734002D1*
X1968626Y731570D1*
X1966249Y724385D1*
Y702886D1*
X2016489D1*
X1990181Y719632D2*
X2016489Y736379D1*
X1966305Y780503D2*
Y756627D1*
X1987805Y754250D1*
X1985428Y756627D1*
X1982996Y763812D1*
Y770941D1*
X1985428Y778126D1*
X1990181Y782935D1*
X1997366Y785311D1*
X2002119D1*
X2009304Y782935D1*
X2014113Y778126D1*
X2016489Y770941D1*
Y763812D1*
X2014113Y756627D1*
X2011681Y754250D1*
X2006928Y751818D1*
X2152681Y704102D2*
Y725601D1*
X2150249Y732786D1*
X2147873Y735218D1*
X2143120Y737595D1*
X2138311D1*
X2133558Y735218D1*
X2131126Y732786D1*
X2128749Y725601D1*
Y704102D1*
X2178989D1*
X2152681Y720848D2*
X2178989Y737595D1*
X2135934Y781719D2*
X2131181Y779342D1*
X2128805Y772157D1*
Y767404D1*
X2131181Y760219D1*
X2138366Y755411D1*
X2150305Y753034D1*
X2162243D1*
X2171804Y755411D1*
X2176613Y760219D1*
X2178989Y767404D1*
Y769781D1*
X2176613Y776910D1*
X2171804Y781719D1*
X2164619Y784095D1*
X2162243D1*
X2155058Y781719D1*
X2150305Y776910D1*
X2147928Y769781D1*
Y767404D1*
X2150305Y760219D1*
X2155058Y755411D1*
X2162243Y753034D1*
X2815181Y815189D2*
Y836689D1*
X2812749Y843874D1*
X2810373Y846305D1*
X2805620Y848682D1*
X2800811D1*
X2796058Y846305D1*
X2793626Y843874D1*
X2791249Y836689D1*
Y815189D1*
X2841489D1*
X2815181Y831935D2*
X2841489Y848682D1*
Y873683D2*
X2791305Y897615D1*
Y864121D1*
X2965181Y815216D2*
Y836716D1*
X2962749Y843901D1*
X2960373Y846333D1*
X2955620Y848710D1*
X2950811D1*
X2946058Y846333D1*
X2943626Y843901D1*
X2941249Y836716D1*
Y815216D1*
X2991489D1*
X2965181Y831963D2*
X2991489Y848710D1*
X2941305Y876087D2*
X2943681Y868957D1*
X2948434Y866526D1*
X2953243Y866525D1*
X2957996Y868957D1*
X2960428Y873711D1*
X2962805Y883272D1*
X2965181Y890457D1*
X2969990Y895210D1*
X2974743Y897587D1*
X2981928D1*
X2986681Y895210D1*
X2989113Y892834D1*
X2991489Y885649D1*
Y876087D1*
X2989113Y868957D1*
X2986681Y866525D1*
X2981928Y864149D1*
X2974743D1*
X2969990Y866525D1*
X2965181Y871334D1*
X2962805Y878464D1*
X2960428Y888025D1*
X2957996Y892834D1*
X2953243Y895210D1*
X2948434D1*
X2943681Y892834D1*
X2941305Y885649D1*
Y876087D1*
X3115181Y816377D2*
Y837877D1*
X3112749Y845062D1*
X3110373Y847494D1*
X3105620Y849870D1*
X3100811D1*
X3096058Y847494D1*
X3093626Y845062D1*
X3091249Y837877D1*
Y816377D1*
X3141489D1*
X3115181Y833124D2*
X3141489Y849870D1*
X3107996Y896426D2*
X3115181Y893994D1*
X3119990Y889241D1*
X3122366Y882056D1*
Y879680D1*
X3119990Y872495D1*
X3115181Y867741D1*
X3107996Y865310D1*
X3105620D1*
X3098434Y867741D1*
X3093681Y872495D1*
X3091305Y879680D1*
Y882056D1*
X3093681Y889241D1*
X3098434Y893994D1*
X3107996Y896426D1*
X3119990D1*
X3131928Y893994D1*
X3139113Y889241D1*
X3141489Y882056D1*
Y877303D1*
X3139113Y870118D1*
X3134304Y867741D1*
X3277681Y801472D2*
Y822972D1*
X3275249Y830157D1*
X3272873Y832589D1*
X3268120Y834966D1*
X3263311D1*
X3258558Y832589D1*
X3256126Y830157D1*
X3253749Y822972D1*
Y801472D1*
X3303989D1*
X3277681Y818219D2*
X3303989Y834966D1*
X3263366Y850405D2*
X3260934Y855213D1*
X3253805Y862398D1*
X3303989D1*
X3253805Y892208D2*
X3256181Y885023D1*
X3263366Y880214D1*
X3275305Y877838D1*
X3282490D1*
X3294428Y880214D1*
X3301613Y885023D1*
X3303989Y892208D1*
Y896961D1*
X3301613Y904146D1*
X3294428Y908899D1*
X3282490Y911331D1*
X3275305D1*
X3263366Y908899D1*
X3256181Y904146D1*
X3253805Y896961D1*
Y892208D1*
X3263366Y908899D2*
X3294428Y880214D1*
X2559530Y936908D2*
X2554777Y941717D1*
X2547592Y944093D1*
X2538030D1*
X2530845Y941717D1*
X2526037Y936908D1*
Y932155D1*
X2528469Y927346D1*
X2530845Y924970D1*
X2535599Y922593D1*
X2549969Y917785D1*
X2554777Y915408D1*
X2557154Y912976D1*
X2559530Y908223D1*
Y901038D1*
X2554777Y896285D1*
X2547592Y893853D1*
X2538030D1*
X2530845Y896285D1*
X2526037Y901038D1*
X2574970Y934476D2*
X2579778Y936908D1*
X2586963Y944038D1*
Y893853D1*
X1666391Y1364157D2*
Y1328288D1*
X1668768Y1321102D1*
X1673576Y1316349D1*
X1680761Y1313917D1*
X1685515D1*
X1692700Y1316349D1*
X1697508Y1321102D1*
X1699885Y1328288D1*
Y1364157D1*
X1715324Y1354541D2*
X1720132Y1356972D1*
X1727317Y1364102D1*
Y1313917D1*
X1365287Y1019192D2*
Y983322D1*
X1367664Y976137D1*
X1372472Y971383D1*
X1379657Y968952D1*
X1384410D1*
X1391595Y971383D1*
X1396404Y976137D1*
X1398780Y983322D1*
Y1019192D1*
X1416651Y1007198D2*
Y1009575D1*
X1419028Y1014383D1*
X1421405Y1016760D1*
X1426213Y1019136D1*
X1435775D1*
X1440528Y1016760D1*
X1442905Y1014383D1*
X1445336Y1009575D1*
Y1004822D1*
X1442905Y1000013D1*
X1438151Y992883D1*
X1414220Y968952D1*
X1447713D1*
X2952787Y743897D2*
Y708027D1*
X2955164Y700842D1*
X2959972Y696089D1*
X2967157Y693657D1*
X2971910D1*
X2979095Y696089D1*
X2983904Y700842D1*
X2986280Y708027D1*
Y743897D1*
X3006528Y743842D2*
X3032781D1*
X3018466Y724718D1*
X3025651D1*
X3030405Y722342D1*
X3032781Y719965D1*
X3035213Y712780D1*
Y708027D1*
X3032781Y700842D1*
X3028028Y696034D1*
X3020843Y693657D1*
X3013658D1*
X3006528Y696034D1*
X3004151Y698465D1*
X3001720Y703219D1*
X973941Y1390156D2*
Y1354286D1*
X976318Y1347101D1*
X981126Y1342348D1*
X988311Y1339916D1*
X993065D1*
X1000250Y1342348D1*
X1005058Y1347101D1*
X1007435Y1354286D1*
Y1390156D1*
X1046806Y1339916D2*
Y1390101D1*
X1022874Y1356663D1*
X1058744D1*
X2096488Y1789058D2*
Y1753188D1*
X2098864Y1746003D1*
X2103673Y1741250D1*
X2110858Y1738818D1*
X2115611D1*
X2122796Y1741250D1*
X2127605Y1746003D1*
X2129981Y1753188D1*
Y1789058D1*
X2174105Y1789002D2*
X2150229D1*
X2147852Y1767503D1*
X2150229Y1769879D1*
X2157414Y1772311D1*
X2164544D1*
X2171729Y1769879D1*
X2176537Y1765126D1*
X2178914Y1757941D1*
Y1753188D1*
X2176537Y1746003D1*
X2171729Y1741194D1*
X2164544Y1738818D1*
X2157414D1*
X2150229Y1741194D1*
X2147852Y1743626D1*
X2145420Y1748379D1*
X2940785Y1553927D2*
Y1518057D1*
X2943162Y1510872D1*
X2947970Y1506119D1*
X2955155Y1503687D1*
X2959908D1*
X2967093Y1506119D1*
X2971902Y1510872D1*
X2974279Y1518057D1*
Y1553927D1*
X3018403Y1546742D2*
X3016026Y1551496D1*
X3008841Y1553872D1*
X3004088D1*
X2996903Y1551496D1*
X2992094Y1544310D1*
X2989718Y1532372D1*
Y1520434D1*
X2992094Y1510872D1*
X2996903Y1506064D1*
X3004088Y1503687D1*
X3006464D1*
X3013594Y1506064D1*
X3018403Y1510872D1*
X3020779Y1518057D1*
Y1520434D1*
X3018403Y1527619D1*
X3013594Y1532372D1*
X3006464Y1534749D1*
X3004088D1*
X2996903Y1532372D1*
X2992094Y1527619D1*
X2989718Y1520434D1*
X2990287Y1731692D2*
Y1695822D1*
X2992664Y1688637D1*
X2997472Y1683883D1*
X3004657Y1681452D1*
X3009410D1*
X3016595Y1683883D1*
X3021404Y1688637D1*
X3023780Y1695822D1*
Y1731692D1*
X3048781Y1681452D2*
X3072713Y1731636D1*
X3039220D1*
X1063660Y1674729D2*
X1082784Y1650797D1*
Y1624489D1*
X1101907Y1674729D2*
X1082784Y1650797D1*
X1117346Y1665112D2*
X1122155Y1667544D1*
X1129340Y1674674D1*
Y1624489D1*
X1764478Y546372D2*
X1785977D1*
X1793162Y548804D1*
X1795594Y551180D1*
X1797971Y555934D1*
Y560742D1*
X1795594Y565495D1*
X1793162Y567927D1*
X1785977Y570304D1*
X1764478D1*
Y520064D1*
X1781224Y546372D2*
X1797971Y520064D1*
X1844472Y570304D2*
X1813410D1*
Y520064D1*
X1844472D1*
X1813410Y546372D2*
X1832533D1*
X1893404Y563119D2*
X1888651Y567927D1*
X1881466Y570304D1*
X1871904D1*
X1864719Y567927D1*
X1859911Y563119D1*
Y558365D1*
X1862343Y553557D1*
X1864719Y551180D1*
X1869472Y548804D1*
X1883843Y543995D1*
X1888651Y541619D1*
X1891028Y539187D1*
X1893404Y534434D1*
Y527249D1*
X1888651Y522496D1*
X1881466Y520064D1*
X1871904D1*
X1864719Y522496D1*
X1859911Y527249D1*
X1957444Y570304D2*
X1969438Y520064D1*
X1981376Y570304D1*
X1993314Y520064D1*
X2005308Y570304D1*
X2020747D2*
Y520064D1*
X2054240Y570304D2*
X2020747Y536810D1*
X2032685Y548804D2*
X2054240Y520064D1*
X2118281Y570304D2*
Y520064D1*
X2139836D1*
X2147021Y522496D1*
X2149397Y524872D1*
X2151774Y529625D1*
Y536810D1*
X2149397Y541619D1*
X2147021Y543995D1*
X2139836Y546372D1*
X2147021Y548804D1*
X2149397Y551180D1*
X2151774Y555934D1*
Y560742D1*
X2149397Y565495D1*
X2147021Y567927D1*
X2139836Y570304D1*
X2118281D1*
Y546372D2*
X2139836D1*
X2181583Y570304D2*
X2176775Y567927D1*
X2172022Y563119D1*
X2169590Y558365D1*
X2167213Y551180D1*
Y539187D1*
X2169590Y532057D1*
X2172022Y527249D1*
X2176775Y522496D1*
X2181583Y520064D1*
X2191145D1*
X2195898Y522496D1*
X2200707Y527249D1*
X2203083Y532057D1*
X2205460Y539187D1*
Y551180D1*
X2203083Y558365D1*
X2200707Y563119D1*
X2195898Y567927D1*
X2191145Y570304D1*
X2181583D1*
X2235269D2*
X2230461Y567927D1*
X2225707Y563119D1*
X2223276Y558365D1*
X2220899Y551180D1*
Y539187D1*
X2223276Y532057D1*
X2225707Y527249D1*
X2230461Y522496D1*
X2235269Y520064D1*
X2244831D1*
X2249584Y522496D1*
X2254392Y527249D1*
X2256769Y532057D1*
X2259145Y539187D1*
Y551180D1*
X2256769Y558365D1*
X2254392Y563119D1*
X2249584Y567927D1*
X2244831Y570304D1*
X2235269D1*
X2291331D2*
Y520064D1*
X2274585Y570304D2*
X2308078D1*
X3972252Y828716D2*
D104*
X3969400Y834420D1*
X3963630Y840190D1*
X3957926Y843042D1*
X3946452D1*
X3940682Y840190D1*
X3934978Y834420D1*
X3932060Y828716D1*
X3929208Y820094D1*
Y805702D1*
X3932060Y797146D1*
X3934978Y791376D1*
X3940682Y785672D1*
X3946452Y782754D1*
X3957926D1*
X3963630Y785672D1*
X3969400Y791376D1*
X3972252Y797146D1*
Y805702D1*
X3957926D1*
X3923573Y1034643D2*
Y974355D1*
X3949439D1*
X3958061Y977273D1*
X3960913Y980125D1*
X3963765Y985829D1*
Y994451D1*
X3960913Y1000221D1*
X3958061Y1003073D1*
X3949439Y1005925D1*
X3958061Y1008843D1*
X3960913Y1011695D1*
X3963765Y1017398D1*
Y1023169D1*
X3960913Y1028872D1*
X3958061Y1031791D1*
X3949439Y1034643D1*
X3923573D1*
Y1005925D2*
X3949439D1*
X3969535Y1182861D2*
X3946521Y1243149D1*
X3923573Y1182861D1*
X3932195Y1202957D2*
X3960913D1*
X3912912Y1440318D2*
X3884260D1*
X3881409Y1414519D1*
X3884260Y1417371D1*
X3892883Y1420289D1*
X3901438D1*
X3910060Y1417371D1*
X3915830Y1411667D1*
X3918682Y1403045D1*
Y1397341D1*
X3915830Y1388719D1*
X3910060Y1382949D1*
X3901438Y1380097D1*
X3892883D1*
X3884260Y1382949D1*
X3881409Y1385867D1*
X3878490Y1391571D1*
X3937209Y1440385D2*
X3960157Y1380097D1*
X3983105Y1440385D1*
X4059954D2*
Y1380097D1*
X4118673Y1440385D2*
Y1380097D1*
X4078481Y1440385D1*
Y1380097D1*
X3189115Y615024D2*
D105*
X3265608Y571914D1*
X3189115Y528914D1*
X3296487Y505203D2*
X3387350D1*
M02*
